<?xml version="1.0" encoding="UTF-8" standalone="no"?>
<svg
   xmlns:dc="http://purl.org/dc/elements/1.1/"
   xmlns:cc="http://creativecommons.org/ns#"
   xmlns:rdf="http://www.w3.org/1999/02/22-rdf-syntax-ns#"
   xmlns:svg="http://www.w3.org/2000/svg"
   xmlns="http://www.w3.org/2000/svg"
   xmlns:sodipodi="http://sodipodi.sourceforge.net/DTD/sodipodi-0.dtd"
   xmlns:inkscape="http://www.inkscape.org/namespaces/inkscape"
   width="24"
   height="24"
   viewBox="0 0 384 384"
   class="bi bi-calendar"
   version="1.1"
   id="svg26"
   sodipodi:docname="birthday_icon.svg"
   inkscape:version="0.92.3 (2405546, 2018-03-11)"
   style="fill:currentColor">
  <metadata
     id="metadata32">
    <rdf:RDF>
      <cc:Work
         rdf:about="">
        <dc:format>image/svg+xml</dc:format>
        <dc:type
           rdf:resource="http://purl.org/dc/dcmitype/StillImage" />
        <dc:title />
      </cc:Work>
    </rdf:RDF>
  </metadata>
  <defs
     id="defs30" />
  <sodipodi:namedview
     pagecolor="#000000"
     bordercolor="#666666"
     borderopacity="1"
     objecttolerance="10"
     gridtolerance="10"
     guidetolerance="10"
     inkscape:pageopacity="0"
     inkscape:pageshadow="2"
     inkscape:window-width="1366"
     inkscape:window-height="705"
     id="namedview28"
     showgrid="false"
     inkscape:zoom="8.3750003"
     inkscape:cx="53.999832"
     inkscape:cy="-1.7228636"
     inkscape:window-x="-8"
     inkscape:window-y="-8"
     inkscape:window-maximized="1"
     inkscape:current-layer="svg26"
     units="px"
     fit-margin-top="0"
     fit-margin-left="0"
     fit-margin-right="0"
     fit-margin-bottom="0" />
  <path
     d="m 24,96 v 240 a 24,24 0 0 0 24,24 h 288 a 24,24 0 0 0 24,-24 V 96 Z M 48,24 A 48,48 0 0 0 0,72 v 264 a 48,48 0 0 0 48,48 h 288 a 48,48 0 0 0 48,-48 V 72 A 48,48 0 0 0 336,24 Z"
     id="path22"
     inkscape:connector-curvature="0"
     style="fill-rule:evenodd;stroke-width:1;fill:#ffffff" />
  <path
     d="M 84,0 A 12,12 0 0 1 96,12 V 24 A 12,12 0 0 1 72,24 V 12 A 12,12 0 0 1 84,0 Z m 216,0 a 12,12 0 0 1 12,12 v 12 a 12,12 0 0 1 -24,0 V 12 A 12,12 0 0 1 300,0 Z"
     id="path24"
     inkscape:connector-curvature="0"
     style="fill-rule:evenodd;stroke-width:1;fill:#ffffff" />
  <path
     style="fill:#ffffff;stroke-width:0.99999994"
     d="m 110.01227,309.19274 -1.36262,-1.47036 v -25.08559 c 0,-27.749 0.13331,-29.06515 3.49652,-34.68956 2.82985,-4.7316 8.84265,-9.30779 13.57053,-10.32802 l 1.78573,-0.38551 0.15853,-19.54803 0.15853,-19.54802 1.72508,-3.64052 c 3.97799,-8.39457 12.03725,-13.25792 22.0302,-13.29406 l 3.75076,-0.012 v -7.95262 c 0,-7.23515 0.10809,-8.06226 1.13252,-9.16872 1.64065,-1.76087 4.63804,-1.64185 6.3952,0.25461 1.31026,1.41354 1.36262,1.76723 1.36262,9.16872 v 7.69837 h 11.66939 11.66928 v -7.70462 c 0,-6.95316 0.10808,-7.84741 1.15172,-9.16872 1.62708,-2.06832 4.96051,-2.06832 6.58747,0 1.03884,1.32143 1.15173,2.21556 1.15173,9.16872 v 7.70462 h 11.66927 11.66927 v -7.69837 c 0,-7.40149 0.048,-7.75518 1.36263,-9.16872 1.75714,-1.8961 4.75466,-2.01524 6.3952,-0.25461 1.03044,1.1061 1.13252,1.93357 1.13252,9.16872 v 7.95262 l 3.75087,0.012 c 9.99296,0.036 18.05222,4.89961 22.03021,13.29406 l 1.72508,3.64052 0.15853,19.54802 0.15852,19.54803 1.78574,0.38551 c 4.72786,1.02083 10.74067,5.59642 13.57053,10.32802 3.36392,5.62441 3.49652,6.94044 3.49652,34.68956 v 25.08559 l -1.36264,1.47036 -1.36262,1.47035 h -80.62455 -80.62671 z m 156.31935,-25.72236 c 0.0841,-9.9132 -0.048,-18.2201 -0.28944,-18.45982 -0.53923,-0.53924 -5.30182,0.67975 -7.88824,2.0174 -1.05445,0.54524 -3.30556,1.9248 -5.0011,3.06452 -3.94796,2.65368 -6.05867,3.34076 -10.25092,3.33691 -4.6623,-0.005 -6.66673,-0.66534 -11.76931,-3.88443 -9.17172,-5.78545 -11.69653,-6.18898 -17.82054,-2.84763 -9.93206,5.4188 -14.09716,6.73519 -21.31081,6.73519 -7.21378,0 -11.37888,-1.31627 -21.31082,-6.73519 -6.12401,-3.34135 -8.64882,-2.93782 -17.82066,2.84763 -5.10246,3.21861 -7.10689,3.88023 -11.76931,3.88443 -4.19213,0.004 -6.30296,-0.68335 -10.2508,-3.33691 -1.69578,-1.13972 -3.94617,-2.5188 -5.0011,-3.06452 -2.33086,-1.2059 -7.21114,-2.54319 -7.84705,-2.15023 -0.54645,0.33748 -0.63292,35.98228 -0.0841,36.52609 0.20537,0.20536 33.64987,0.30865 74.32232,0.23178 l 73.94965,-0.14051 z m -116.2642,-22.83101 c 7.03051,-4.47411 9.09402,-5.15158 14.94289,-4.90622 4.48108,0.18855 4.91631,0.33027 11.49933,3.75053 7.60121,3.94952 10.96466,5.04481 15.49198,5.04481 4.58231,0 7.87383,-1.09289 16.00623,-5.31491 7.36798,-3.82523 7.38767,-3.83159 11.6629,-3.74632 5.35851,0.10808 7.56386,0.90793 14.294,5.19061 4.28292,2.72549 5.95395,3.4773 8.23845,3.70657 2.74651,0.27622 3.05732,0.16093 7.46105,-2.78218 4.38608,-2.93002 9.07901,-4.89241 13.60332,-5.68854 1.14574,-0.20176 2.08382,-0.56085 2.08382,-0.79745 0,-1.5089 -3.96093,-5.93785 -6.66817,-7.45589 l -3.05624,-1.71367 h -63.62536 -63.62536 l -3.05624,1.71367 c -2.70724,1.51816 -6.66817,5.94699 -6.66817,7.45589 0,0.2366 0.93796,0.59569 2.08381,0.79745 4.52431,0.79625 9.21724,2.75852 13.60332,5.68854 4.40373,2.94191 4.71466,3.0578 7.46105,2.78218 2.28666,-0.22939 3.95722,-0.9824 8.26739,-3.72507 z m 97.50221,-33.48533 v -9.60372 l -3.76301,0.21258 c -5.82317,0.32906 -7.08023,-0.15013 -17.21105,-6.55384 -1.97596,-1.24914 -3.83303,-1.93069 -5.76648,-2.11648 -2.65668,-0.25581 -3.35144,-0.024 -10.14403,3.40524 -8.56163,4.31991 -12.20563,5.36668 -18.68344,5.36668 -6.47782,0 -10.12182,-1.04605 -18.68345,-5.36668 -6.79259,-3.42722 -7.48735,-3.66045 -10.14403,-3.40524 -1.93345,0.18615 -3.79052,0.8671 -5.76648,2.11648 -10.1307,6.40419 -11.38788,6.8829 -17.21105,6.55384 l -3.76301,-0.21258 v 9.60372 9.60359 h 55.56802 55.56801 z M 144.57176,208.14225 c 1.09409,-0.45757 4.14961,-2.18842 6.78923,-3.84696 5.94891,-3.73768 8.14561,-4.39269 13.86069,-4.13316 4.28568,0.19456 4.84245,0.37951 11.33696,3.75929 7.59497,3.95277 10.92407,5.03905 15.44298,5.03905 4.41706,0 8.16206,-1.16494 14.18927,-4.41418 7.11806,-3.83735 9.28257,-4.54497 13.87258,-4.53548 4.8989,0.0101 6.98919,0.76382 13.85612,4.99413 6.12474,3.77322 8.27724,4.42247 11.48096,3.46265 2.15275,-0.64492 2.16908,-0.67134 2.16908,-3.48042 0,-4.17663 -1.03043,-6.91762 -3.73239,-9.92209 -4.47771,-4.98033 -1.46422,-4.70674 -51.83562,-4.70674 -50.3714,0 -47.35792,-0.27383 -51.83563,4.70674 -2.64743,2.94454 -3.73239,5.74534 -3.73239,9.63505 0,1.99843 0.26421,2.72886 1.23508,3.40849 1.55995,1.09289 4.33636,1.1061 6.9032,0.036 z m 12.07088,-55.34128 c -2.32617,-0.67494 -5.60615,-4.39364 -6.07417,-6.88783 -0.2474,-1.31818 -0.0721,-2.80055 0.51762,-4.33972 1.03764,-2.71504 7.38407,-10.9506 8.43913,-10.9506 0.89112,0 4.06914,3.66249 6.99099,8.05733 1.99446,2.99992 2.19538,3.61758 2.00443,6.16341 -0.26542,3.53423 -2.00767,6.10731 -5.08144,7.50321 -2.47617,1.12411 -4.10758,1.23352 -6.79644,0.45396 z m 31.45257,-0.64612 c -7.02018,-3.54648 -6.60693,-10.62214 1.09889,-18.82312 l 2.80716,-2.9873 2.80715,2.9873 c 5.90231,6.28122 7.54092,11.6037 4.82888,15.68473 -1.38208,2.07961 -5.39958,4.38861 -7.63603,4.38861 -0.78784,0 -2.54535,-0.56206 -3.90654,-1.25022 z m 32.46895,0.19096 c -3.0739,-1.3959 -4.81639,-3.96899 -5.08145,-7.50321 -0.19095,-2.54583 0.0104,-3.16349 2.00443,-6.16341 2.91609,-4.38632 6.09903,-8.05734 6.98607,-8.05734 0.99081,0 6.92458,7.54741 8.22056,10.45629 1.45725,3.2705 0.92595,6.21529 -1.63116,9.04598 -2.94264,3.25705 -6.5416,4.0187 -10.49845,2.22169 z"
     id="path198"
     inkscape:connector-curvature="0" />
</svg>
