<?xml version="1.0" encoding="UTF-8" standalone="no"?>
<!-- Generated by IcoMoon.io -->

<svg
   xmlns:dc="http://purl.org/dc/elements/1.1/"
   xmlns:cc="http://creativecommons.org/ns#"
   xmlns:rdf="http://www.w3.org/1999/02/22-rdf-syntax-ns#"
   xmlns:svg="http://www.w3.org/2000/svg"
   xmlns="http://www.w3.org/2000/svg"
   xmlns:sodipodi="http://sodipodi.sourceforge.net/DTD/sodipodi-0.dtd"
   xmlns:inkscape="http://www.inkscape.org/namespaces/inkscape"
   version="1.1"
   width="23.82016"
   height="24"
   viewBox="0 0 23.82016 24"
   id="svg6"
   sodipodi:docname="lattes_icon.svg"
   inkscape:version="0.92.3 (2405546, 2018-03-11)">
  <metadata
     id="metadata12">
    <rdf:RDF>
      <cc:Work
         rdf:about="">
        <dc:format>image/svg+xml</dc:format>
        <dc:type
           rdf:resource="http://purl.org/dc/dcmitype/StillImage" />
        <dc:title>lattes-new</dc:title>
      </cc:Work>
    </rdf:RDF>
  </metadata>
  <defs
     id="defs10" />
  <sodipodi:namedview
     pagecolor="#000000"
     bordercolor="#666666"
     borderopacity="1"
     objecttolerance="10"
     gridtolerance="10"
     guidetolerance="10"
     inkscape:pageopacity="0"
     inkscape:pageshadow="2"
     inkscape:window-width="1366"
     inkscape:window-height="705"
     id="namedview8"
     showgrid="false"
     fit-margin-top="0"
     fit-margin-left="0"
     fit-margin-right="0"
     fit-margin-bottom="0"
     inkscape:zoom="16"
     inkscape:cx="12.732297"
     inkscape:cy="11.072991"
     inkscape:window-x="-8"
     inkscape:window-y="-8"
     inkscape:window-maximized="1"
     inkscape:current-layer="svg6" />
  <title
     id="title2">lattes-new</title>
  <path
     d="M 4.9030198,21.92961 C 2.3286903,16.654731 0.79709138,13.46908 0.79709138,13.389957 c 0,-0.129046 0.1573045,-0.111149 1.70397452,0.192156 2.7203306,0.534082 4.1737482,0.684793 6.5964245,0.685735 3.2054316,9.42e-4 5.8155556,-0.506766 7.8435576,-1.52689 1.072873,-0.539733 1.718104,-1.01824 2.246534,-1.666296 C 19.838464,10.275894 20.047576,9.7258 20.055111,8.79987 20.061711,7.919154 19.94302,7.454776 19.433429,6.377194 19.231853,5.9514354 19.054768,5.4625671 19.037813,5.2911335 c -0.02637,-0.2759892 -0.0038,-0.3155508 0.199692,-0.3390993 0.444597,-0.052749 2.639323,2.0779258 3.44751,3.3467228 1.393134,2.188133 1.506167,4.555235 0.326854,6.844155 -0.724354,1.406321 -1.525005,2.379348 -2.865389,3.485189 -2.227695,1.836788 -4.817096,3.115946 -8.39271,4.146432 C 9.8331474,23.328395 6.7275626,24 6.0879838,24 5.9523441,24 5.6980195,23.555403 4.9049037,21.928668 Z M 5.6198383,13.422925 C 3.1189803,13.098897 1.0203319,12.817256 0.95533778,12.796533 0.84418858,12.760739 0.44668868,11.434484 0.22250638,10.355018 0.16598978,10.081854 0.08309878,9.358442 0.03788558,8.746179 -0.16369022,6.0145456 0.43067568,4.1259504 2.0235009,2.4276276 4.7202829,-0.44529767 10.494392,-0.79475847 17.008868,1.5205367 c 1.143519,0.4069193 1.597535,0.6895021 1.387482,0.8656454 -0.155421,0.1299881 -1.208513,0.1281042 -3.028346,-0.00565 -2.844667,-0.2091113 -5.010193,0.1865046 -6.1263966,1.1209118 -1.699264,1.4223336 -1.44023,4.5401641 0.751671,9.0379411 0.2373696,0.486984 0.4766236,0.963607 0.5312556,1.060627 0.127163,0.223241 0.03485,0.430468 -0.186504,0.420107 -0.0942,-0.0047 -2.2173336,-0.273164 -4.7181917,-0.597192 z M 14.009723,10.975758 C 12.013746,10.616878 10.219345,9.379165 9.6400494,7.963425 9.3621764,7.283342 9.3753634,6.396032 9.6720794,5.8647767 9.9405334,5.3843859 10.633804,4.8286397 11.254544,4.5959798 c 1.033311,-0.3871385 2.842783,-0.2326599 4.161503,0.3560544 1.251842,0.558572 2.361451,1.5410178 2.774021,2.4547028 0.529372,1.172718 0.08854,2.481077 -1.045556,3.105585 -0.75167,0.413513 -2.212623,0.629218 -3.135727,0.463436 z"
     id="path4"
     inkscape:connector-curvature="0"
     sodipodi:nodetypes="csccccccccccccsccscccccccccccsccccccccc"
     style="stroke-width:0.99999994;fill:#ffffff" />
</svg>
