<?xml version="1.0" encoding="UTF-8" standalone="no"?>
<svg
   xmlns:dc="http://purl.org/dc/elements/1.1/"
   xmlns:cc="http://creativecommons.org/ns#"
   xmlns:rdf="http://www.w3.org/1999/02/22-rdf-syntax-ns#"
   xmlns:svg="http://www.w3.org/2000/svg"
   xmlns="http://www.w3.org/2000/svg"
   xmlns:sodipodi="http://sodipodi.sourceforge.net/DTD/sodipodi-0.dtd"
   xmlns:inkscape="http://www.inkscape.org/namespaces/inkscape"
   width="24"
   height="24"
   viewBox="0 0 24 24"
   class="bi bi-envelope"
   version="1.1"
   id="svg4"
   sodipodi:docname="mail_icon.svg"
   style="fill:currentColor"
   inkscape:version="0.92.3 (2405546, 2018-03-11)">
  <metadata
     id="metadata10">
    <rdf:RDF>
      <cc:Work
         rdf:about="">
        <dc:format>image/svg+xml</dc:format>
        <dc:type
           rdf:resource="http://purl.org/dc/dcmitype/StillImage" />
        <dc:title></dc:title>
      </cc:Work>
    </rdf:RDF>
  </metadata>
  <defs
     id="defs8" />
  <sodipodi:namedview
     pagecolor="#000000"
     bordercolor="#666666"
     borderopacity="1"
     objecttolerance="10"
     gridtolerance="10"
     guidetolerance="10"
     inkscape:pageopacity="0"
     inkscape:pageshadow="2"
     inkscape:window-width="1366"
     inkscape:window-height="705"
     id="namedview6"
     showgrid="false"
     inkscape:zoom="14.75"
     inkscape:cx="-0.37288136"
     inkscape:cy="8"
     inkscape:window-x="-8"
     inkscape:window-y="-8"
     inkscape:window-maximized="1"
     inkscape:current-layer="svg4" />
  <path
     d="M 0,6 A 3,3 0 0 1 3,3 h 18 a 3,3 0 0 1 3,3 v 12 a 3,3 0 0 1 -3,3 H 3 A 3,3 0 0 1 0,18 Z M 3,4.5 A 1.5,1.5 0 0 0 1.5,6 v 0.3255 l 10.5,6.3 10.5,-6.3 V 6 A 1.5,1.5 0 0 0 21,4.5 Z M 22.5,8.0745 15.363,12.357 22.5,16.671 V 8.076 Z M 22.449,18.3915 13.9065,13.23 12,14.3745 10.092,13.23 1.551,18.39 A 1.5,1.5 0 0 0 3,19.5 h 18 a 1.5,1.5 0 0 0 1.449,-1.1085 z M 1.5,16.671 8.637,12.357 1.5,8.0745 v 8.595 z"
     id="path2"
     inkscape:connector-curvature="0"
     style="fill-rule:evenodd;stroke-width:1;fill:#ffffff" />
</svg>
