<?xml version="1.0" encoding="UTF-8" standalone="no"?>
<!-- Created with Inkscape (http://www.inkscape.org/) -->

<svg
   width="24"
   height="24"
   viewBox="0 0 6.3500005 6.3500002"
   version="1.1"
   id="svg5"
   inkscape:export-filename="..\..\..\..\..\Ãrea de Trabalho\passport-white.png"
   inkscape:export-xdpi="96"
   inkscape:export-ydpi="96"
   sodipodi:docname="passport_icon.svg"
   xmlns:inkscape="http://www.inkscape.org/namespaces/inkscape"
   xmlns:sodipodi="http://sodipodi.sourceforge.net/DTD/sodipodi-0.dtd"
   xmlns="http://www.w3.org/2000/svg"
   xmlns:svg="http://www.w3.org/2000/svg">
  <sodipodi:namedview
     id="namedview7"
     pagecolor="#ffffff"
     bordercolor="#000000"
     borderopacity="0.25"
     inkscape:showpageshadow="2"
     inkscape:pageopacity="0.0"
     inkscape:pagecheckerboard="0"
     inkscape:deskcolor="#d1d1d1"
     inkscape:document-units="px"
     showgrid="false" />
  <defs
     id="defs2" />
  <g
     inkscape:label="Layer 1"
     inkscape:groupmode="layer"
     id="layer1"
     transform="translate(-75.257654,-109.01274)">
    <g
       id="g301"
       transform="matrix(0.08355264,0,0,0.08355264,74.422127,108.17721)"
       style="fill:#ffffff">
      <path
         d="M 48,10 C 27,10 10,27 10,48 10,69 27,86 48,86 69,86 86,69 86,48 86,27 69,10 48,10 Z M 14,48 c 0,-8.9 3.4,-16.9 9,-23 0.9,0.5 1.8,1.3 2,2 v 6.3 c 0,0.4 0.1,0.9 0.4,1.2 L 32,43 32.5,42.5 c 0.3,-0.3 0.4,-0.8 0.2,-1.2 l -1.2,-2 c -0.5,-0.8 0.3,-1.8 1.2,-1.5 0.3,0.1 0.5,0.3 0.6,0.5 l 3.3,6.5 c 0.4,0.7 1,1.3 1.7,1.5 l 4.4,1.5 c 0.3,0.1 0.5,0.3 0.6,0.5 l 0.3,0.5 c 0.3,0.7 1,1.1 1.8,1.1 h 1.2 c 0.3,0 0.6,0.2 0.8,0.4 l 1.3,1.9 c 0.3,0.4 0.7,0.7 1.2,0.8 l 2.1,0.5 c 0.6,0.1 0.9,0.8 0.7,1.3 0,0 -1.6,1.6 -1.6,3.9 0,6.6 6,8.5 6,10 0,4.1 -0.6,9.8 -0.9,12 -2.6,0.6 -5.3,1 -8.1,1 C 29.3,82 14,66.7 14,48 Z M 60.8,79.5 C 63,77.6 66.7,74.4 68,73 c 1.7,-1.9 2,-5 2,-5 0,0 7,-1.9 7,-7 0,-3.5 -7,-5 -7,-5 -1.2,-3.9 -7.1,-6 -12,-6 -1.1,0 -5,2 -5,2 l -2,-1 v -3 c 0,-0.6 -0.4,-1 -1,-1 h -2 v -3 c 0,-0.6 -0.4,-1 -1,-1 h -1 l -1.1,0.7 c -1,0.7 -2.4,0.3 -2.9,-0.8 0,0 -1,-1.4 -1,-2 0,-4.3 5,-4 5,-4 h 2.2 c 0.5,0 0.9,0.3 1,0.8 l 0.6,2.5 c 0.1,0.4 0.5,0.8 1,0.8 h 0.4 c 0.5,0 0.9,-0.3 1,-0.8 l 0.7,-3.7 c 0.1,-0.3 0.2,-0.6 0.4,-0.9 l 2.8,-3.5 C 56.7,31.4 57.5,31 58.4,31 H 61 c 0.6,0 1,-0.4 1,-1 V 29 L 61.7,28.7 C 61.1,28.1 61.5,27 62.4,27 H 63 c 0.6,0 1,0.4 1,1 0,0.6 0.4,1 1,1 h 1 l 0.6,-2.6 c 0.2,-0.9 -0.2,-1.7 -0.9,-2.2 L 57.2,19.1 C 57.1,19 56.9,19 56.7,19 H 55 c -1.1,0 -2,0.9 -2,2 v 1 c 0,0.6 -0.4,1 -1,1 h -1 l -1,-1 h -3 c -0.6,0 -1,-0.4 -1,-1 v -2.5 c 0,-0.3 0.1,-0.6 0.4,-0.8 l 6.4,-2.7 1,1.7 C 54,16.9 54.2,17 54.5,17 H 57 c 0.6,0 1,-0.4 1,-1 V 15.5 C 71.9,19.8 82,32.7 82,48 82,62.2 73.2,74.4 60.8,79.5 Z"
         id="path297"
         style="fill:#ffffff" />
      <path
         d="m 60.3,43.8 -4.8,-1.6 c -0.4,-0.1 -0.7,-0.1 -1.1,0 L 51,43 c -0.3,0.2 -0.4,0.6 0,1 h 4.6 c 0.3,0 0.5,0 0.7,0.1 l 3.5,1.4 c 0.6,0.2 1.2,-0.2 1.2,-0.8 0,-0.4 -0.3,-0.8 -0.7,-0.9 z"
         id="path299"
         style="fill:#ffffff" />
    </g>
  </g>
</svg>
