<?xml version="1.0" encoding="UTF-8" standalone="no"?>
<svg
   xmlns:dc="http://purl.org/dc/elements/1.1/"
   xmlns:cc="http://creativecommons.org/ns#"
   xmlns:rdf="http://www.w3.org/1999/02/22-rdf-syntax-ns#"
   xmlns:svg="http://www.w3.org/2000/svg"
   xmlns="http://www.w3.org/2000/svg"
   xmlns:sodipodi="http://sodipodi.sourceforge.net/DTD/sodipodi-0.dtd"
   xmlns:inkscape="http://www.inkscape.org/namespaces/inkscape"
   width="24"
   height="24"
   viewBox="0 0 24 24"
   class="bi bi-phone"
   version="1.1"
   id="svg6"
   sodipodi:docname="phone.svg"
   style="fill:currentColor"
   inkscape:version="0.92.3 (2405546, 2018-03-11)">
  <metadata
     id="metadata12">
    <rdf:RDF>
      <cc:Work
         rdf:about="">
        <dc:format>image/svg+xml</dc:format>
        <dc:type
           rdf:resource="http://purl.org/dc/dcmitype/StillImage" />
        <dc:title></dc:title>
      </cc:Work>
    </rdf:RDF>
  </metadata>
  <defs
     id="defs10" />
  <sodipodi:namedview
     pagecolor="#000000"
     bordercolor="#666666"
     borderopacity="1"
     objecttolerance="10"
     gridtolerance="10"
     guidetolerance="10"
     inkscape:pageopacity="0"
     inkscape:pageshadow="2"
     inkscape:window-width="1366"
     inkscape:window-height="705"
     id="namedview8"
     showgrid="false"
     inkscape:zoom="14.75"
     inkscape:cx="-0.37288136"
     inkscape:cy="11.630173"
     inkscape:window-x="-8"
     inkscape:window-y="-8"
     inkscape:window-maximized="1"
     inkscape:current-layer="svg6" />
  <path
     d="M 16.5,1.5 H 7.4999998 a 1.5,1.5 0 0 0 -1.5,1.5 v 18 a 1.5,1.5 0 0 0 1.5,1.5 H 16.5 A 1.5,1.5 0 0 0 18,21 V 3 A 1.5,1.5 0 0 0 16.5,1.5 Z M 7.4999998,0 a 3,3 0 0 0 -3,3 v 18 a 3,3 0 0 0 3,3 H 16.5 a 3,3 0 0 0 3,-3 V 3 a 3,3 0 0 0 -3,-3 z"
     id="path2"
     inkscape:connector-curvature="0"
     style="fill-rule:evenodd;stroke-width:1;fill:#ffffff" />
  <path
     d="m 12,21 a 1.5,1.5 0 1 0 0,-3 1.5,1.5 0 0 0 0,3 z"
     id="path4"
     inkscape:connector-curvature="0"
     style="fill-rule:evenodd;stroke-width:1;fill:#ffffff" />
</svg>
