<?xml version="1.0" encoding="UTF-8" standalone="no"?>
<!-- Created with Inkscape (http://www.inkscape.org/) -->

<svg
   width="34.924999mm"
   height="52.377502mm"
   viewBox="0 0 34.924999 52.377502"
   version="1.1"
   id="svg5"
   inkscape:export-filename="passport-white.svg"
   inkscape:export-xdpi="96"
   inkscape:export-ydpi="96"
   xmlns:inkscape="http://www.inkscape.org/namespaces/inkscape"
   xmlns:sodipodi="http://sodipodi.sourceforge.net/DTD/sodipodi-0.dtd"
   xmlns="http://www.w3.org/2000/svg"
   xmlns:svg="http://www.w3.org/2000/svg">
  <sodipodi:namedview
     id="namedview7"
     pagecolor="#ffffff"
     bordercolor="#000000"
     borderopacity="0.25"
     inkscape:showpageshadow="2"
     inkscape:pageopacity="0.0"
     inkscape:pagecheckerboard="0"
     inkscape:deskcolor="#d1d1d1"
     inkscape:document-units="mm"
     showgrid="false" />
  <defs
     id="defs2">
    <clipPath
       id="clip0">
      <rect
         x="734"
         y="287"
         width="132"
         height="198"
         id="rect59" />
    </clipPath>
    <clipPath
       id="clip1">
      <rect
         x="749"
         y="315"
         width="102"
         height="102"
         id="rect62" />
    </clipPath>
    <clipPath
       id="clip2">
      <rect
         x="749"
         y="315"
         width="102"
         height="102"
         id="rect65" />
    </clipPath>
    <clipPath
       id="clip3">
      <rect
         x="749"
         y="315"
         width="102"
         height="102"
         id="rect68" />
    </clipPath>
  </defs>
  <g
     inkscape:label="Layer 1"
     inkscape:groupmode="layer"
     id="layer1"
     transform="translate(-75.257654,-109.01274)">
    <g
       clip-path="url(#clip0)"
       transform="matrix(0.26458333,0,0,0.26458333,-118.94651,33.077185)"
       id="g87">
      <path
         d="m 262.386,752.928 -2.49,-1.382 -1.557,-1.951 -1.557,-1.951 v -82.436 -82.435 l 2.268,-2.801 2.269,-2.801 49.722,-9.782 49.722,-9.782 3.336,-0.01 3.336,-0.009 1.957,1.957 1.956,1.956 v 7.383 7.383 h 5.661 5.66 l 3.057,3.057 3.056,3.056 v 82.73 82.73 l -2.38,2.94 -2.379,2.94 -59.573,0.293 -59.573,0.292 z m 120.026,-5.258 1.407,-1.695 -0.32,-82.05 -0.321,-82.05 -59.008,-0.324 -59.009,-0.324 -1.699,1.41 -1.699,1.41 v 81.164 81.165 l 1.494,1.494 1.495,1.495 h 58.126 58.127 z m -14.8,-176.765 v -5.366 l -1.556,-1.991 -1.557,-1.991 -35.49,7.223 -35.491,7.223 37.047,0.134 37.047,0.134 z"
         fill="#ffffff"
         transform="matrix(1,0,0,1.00633,477.218,-274.117)"
         id="path73" />
      <g
         clip-path="url(#clip1)"
         id="g83">
        <g
           clip-path="url(#clip2)"
           id="g81">
          <g
             clip-path="url(#clip3)"
             id="g79">
            <path
               d="m 800,325.625 c -22.312,0 -40.375,18.063 -40.375,40.375 0,22.312 18.063,40.375 40.375,40.375 22.312,0 40.375,-18.063 40.375,-40.375 0,-22.312 -18.063,-40.375 -40.375,-40.375 z M 763.875,366 c 0,-9.456 3.612,-17.956 9.563,-24.438 0.956,0.532 1.912,1.382 2.124,2.126 v 6.693 c 0,0.425 0.107,0.956 0.425,1.275 l 7.013,9.032 0.531,-0.532 c 0.319,-0.319 0.425,-0.85 0.213,-1.275 l -1.275,-2.125 c -0.531,-0.85 0.318,-1.912 1.275,-1.593 0.318,0.106 0.531,0.318 0.637,0.531 l 3.507,6.906 c 0.424,0.744 1.062,1.381 1.806,1.594 l 4.675,1.594 c 0.319,0.106 0.531,0.318 0.637,0.531 l 0.319,0.531 c 0.319,0.744 1.063,1.169 1.912,1.169 h 1.276 c 0.318,0 0.637,0.212 0.849,0.425 l 1.382,2.018 c 0.318,0.426 0.743,0.744 1.275,0.85 l 2.231,0.532 c 0.638,0.106 0.956,0.85 0.744,1.381 0,0 -1.7,1.7 -1.7,4.144 0,7.012 6.375,9.031 6.375,10.625 0,4.356 -0.638,10.412 -0.956,12.75 -2.763,0.637 -5.632,1.062 -8.607,1.062 -19.975,0.319 -36.231,-15.937 -36.231,-35.806 z m 49.725,33.469 c 2.338,-2.019 6.269,-5.419 7.65,-6.907 1.806,-2.018 2.125,-5.312 2.125,-5.312 0,0 7.437,-2.019 7.437,-7.438 0,-3.718 -7.437,-5.312 -7.437,-5.312 -1.275,-4.144 -7.544,-6.375 -12.75,-6.375 -1.169,0 -5.313,2.125 -5.313,2.125 l -2.124,-1.062 V 366 c 0,-0.638 -0.425,-1.062 -1.063,-1.062 H 800 v -3.188 c 0,-0.638 -0.425,-1.062 -1.062,-1.062 h -1.063 l -1.169,0.743 c -1.062,0.744 -2.55,0.319 -3.081,-0.85 0,0 -1.063,-1.487 -1.063,-2.125 0,-4.568 5.313,-4.25 5.313,-4.25 h 2.338 c 0.531,0 0.956,0.319 1.062,0.85 l 0.637,2.656 c 0.107,0.426 0.532,0.85 1.063,0.85 h 0.425 c 0.531,0 0.956,-0.318 1.063,-0.85 l 0.743,-3.931 c 0.106,-0.319 0.213,-0.637 0.425,-0.956 l 2.975,-3.719 c 0.638,-0.744 1.488,-1.168 2.444,-1.168 h 2.762 c 0.638,0 1.063,-0.425 1.063,-1.063 v -1.063 l -0.319,-0.318 c -0.637,-0.638 -0.212,-1.806 0.744,-1.806 h 0.638 c 0.637,0 1.062,0.424 1.062,1.062 0,0.638 0.425,1.062 1.062,1.062 h 1.063 l 0.638,-2.762 c 0.212,-0.956 -0.213,-1.806 -0.957,-2.338 l -9.031,-5.418 c -0.106,-0.106 -0.319,-0.106 -0.531,-0.106 h -1.806 c -1.169,0 -2.126,0.956 -2.126,2.124 v 1.063 c 0,0.638 -0.424,1.063 -1.062,1.063 h -1.062 l -1.063,-1.063 h -3.187 c -0.638,0 -1.063,-0.425 -1.063,-1.063 v -2.656 c 0,-0.319 0.106,-0.637 0.425,-0.85 l 6.8,-2.868 1.062,1.806 c 0.213,0.212 0.426,0.318 0.744,0.318 h 2.656 c 0.638,0 1.063,-0.424 1.063,-1.062 v -0.531 c 14.769,4.569 25.5,18.275 25.5,34.531 0,15.087 -9.35,28.05 -22.525,33.469 z"
               fill="#ffffff"
               id="path75" />
            <path
               d="m 813.069,361.538 -5.1,-1.701 c -0.425,-0.106 -0.744,-0.106 -1.169,0 l -3.612,0.851 c -0.319,0.212 -0.425,0.637 0,1.062 h 4.887 c 0.319,0 0.531,0 0.744,0.106 l 3.718,1.488 c 0.638,0.212 1.275,-0.213 1.275,-0.85 0,-0.425 -0.318,-0.85 -0.743,-0.956 z"
               fill="#ffffff"
               id="path77" />
          </g>
        </g>
      </g>
      <path
         d="m 757,444.067 c 0,-3.351 2.716,-6.067 6.067,-6.067 h 73.866 c 3.351,0 6.067,2.716 6.067,6.067 v 0.866 c 0,3.351 -2.716,6.067 -6.067,6.067 H 763.067 C 759.716,451 757,448.284 757,444.933 Z"
         fill="#ffffff"
         fill-rule="evenodd"
         id="path85" />
    </g>
  </g>
</svg>
