<?xml version="1.0" encoding="UTF-8" standalone="no"?>
<svg
   xmlns:dc="http://purl.org/dc/elements/1.1/"
   xmlns:cc="http://creativecommons.org/ns#"
   xmlns:rdf="http://www.w3.org/1999/02/22-rdf-syntax-ns#"
   xmlns:svg="http://www.w3.org/2000/svg"
   xmlns="http://www.w3.org/2000/svg"
   xmlns:sodipodi="http://sodipodi.sourceforge.net/DTD/sodipodi-0.dtd"
   xmlns:inkscape="http://www.inkscape.org/namespaces/inkscape"
   viewBox="0 0 24 24"
   width="24"
   height="24"
   version="1.1"
   id="svg10"
   sodipodi:docname="excel_icon.svg"
   inkscape:version="0.92.3 (2405546, 2018-03-11)">
  <metadata
     id="metadata16">
    <rdf:RDF>
      <cc:Work
         rdf:about="">
        <dc:format>image/svg+xml</dc:format>
        <dc:type
           rdf:resource="http://purl.org/dc/dcmitype/StillImage" />
        <dc:title></dc:title>
      </cc:Work>
    </rdf:RDF>
  </metadata>
  <defs
     id="defs14" />
  <sodipodi:namedview
     pagecolor="#ffffff"
     bordercolor="#666666"
     borderopacity="1"
     objecttolerance="10"
     gridtolerance="10"
     guidetolerance="10"
     inkscape:pageopacity="0"
     inkscape:pageshadow="2"
     inkscape:window-width="1366"
     inkscape:window-height="705"
     id="namedview12"
     showgrid="false"
     fit-margin-top="0"
     fit-margin-left="0"
     fit-margin-right="0"
     fit-margin-bottom="0"
     inkscape:zoom="4.9166667"
     inkscape:cx="18"
     inkscape:cy="18"
     inkscape:window-x="-8"
     inkscape:window-y="-8"
     inkscape:window-maximized="1"
     inkscape:current-layer="svg10" />
  <path
     d="M 23.333333,2.666667 H 12.666667 V 21.333333 H 23.333333 C 23.702,21.333333 24,21.035333 24,20.666667 V 3.333333 C 24,2.964667 23.702,2.666667 23.333333,2.666667 Z"
     id="path2"
     inkscape:connector-curvature="0"
     style="fill:#4caf50;stroke-width:1" />
  <path
     d="M 17.333333,6 H 22 v 2 h -4.666667 z m 0,6.666667 H 22 v 2 h -4.666667 z m 0,3.333333 H 22 v 2 h -4.666667 z m 0,-6.666667 H 22 v 2 H 17.333333 Z M 12.666667,6 H 16 v 2 h -3.333333 z m 0,6.666667 H 16 v 2 h -3.333333 z m 0,3.333333 H 16 v 2 h -3.333333 z m 0,-6.666667 H 16 v 2 h -3.333333 z"
     id="path4"
     inkscape:connector-curvature="0"
     style="fill:#ffffff;stroke-width:1" />
  <path
     d="M 14,24 0,21.333333 V 2.666667 L 14,0 Z"
     id="path6"
     inkscape:connector-curvature="0"
     style="fill:#2e7d32;stroke-width:1" />
  <path
     d="M 8.752667,16.666667 7.145333,13.626 C 7.084,13.512 7.021333,13.304 6.956,13.000667 H 6.93133 C 6.90066,13.144 6.828664,13.361333 6.71533,13.653333 l -1.614,3.013334 H 2.5966667 L 5.571333,11.999333 2.8493334,7.333333 H 5.407333 l 1.334,2.797334 c 0.104,0.220666 0.197334,0.483333 0.28,0.786 H 7.048 C 7.1,10.736 7.197333,10.463333 7.340667,10.103333 l 1.484,-2.77 H 11.168 l -2.799333,4.626 2.877333,4.706 H 8.752667 Z"
     id="path8"
     inkscape:connector-curvature="0"
     style="fill:#ffffff;stroke-width:1" />
</svg>
