<?xml version="1.0" encoding="UTF-8" standalone="no"?>
<!-- Created with Inkscape (http://www.inkscape.org/) -->

<svg
   xmlns:dc="http://purl.org/dc/elements/1.1/"
   xmlns:cc="http://creativecommons.org/ns#"
   xmlns:rdf="http://www.w3.org/1999/02/22-rdf-syntax-ns#"
   xmlns:svg="http://www.w3.org/2000/svg"
   xmlns="http://www.w3.org/2000/svg"
   xmlns:sodipodi="http://sodipodi.sourceforge.net/DTD/sodipodi-0.dtd"
   xmlns:inkscape="http://www.inkscape.org/namespaces/inkscape"
   version="1.1"
   id="svg2"
   width="24"
   height="24"
   viewBox="0 0 24 24"
   sodipodi:docname="origin_icon.svg"
   inkscape:version="0.92.3 (2405546, 2018-03-11)">
  <metadata
     id="metadata8">
    <rdf:RDF>
      <cc:Work
         rdf:about="">
        <dc:format>image/svg+xml</dc:format>
        <dc:type
           rdf:resource="http://purl.org/dc/dcmitype/StillImage" />
        <dc:title />
      </cc:Work>
    </rdf:RDF>
  </metadata>
  <defs
     id="defs6" />
  <sodipodi:namedview
     pagecolor="#ffffff"
     bordercolor="#666666"
     borderopacity="1"
     objecttolerance="10"
     gridtolerance="10"
     guidetolerance="10"
     inkscape:pageopacity="0"
     inkscape:pageshadow="2"
     inkscape:window-width="1366"
     inkscape:window-height="705"
     id="namedview4"
     showgrid="false"
     fit-margin-top="0"
     fit-margin-left="0"
     fit-margin-right="0"
     fit-margin-bottom="0"
     inkscape:zoom="12.586667"
     inkscape:cx="11.923655"
     inkscape:cy="15.413859"
     inkscape:window-x="-8"
     inkscape:window-y="-8"
     inkscape:window-maximized="1"
     inkscape:current-layer="g812" />
  <g
     id="g812">
    <path
       style="fill:none;stroke-width:1"
       d="M 0,12 V 0 H 12 24 V 12 24 H 12 0 Z"
       id="path828"
       inkscape:connector-curvature="0" />
    <path
       style="fill:#f8c8b5;stroke-width:1"
       d="M 10.02,23.374845 C 8.762732,23.240944 7.6421776,22.959711 6.84,22.576738 5.7370516,22.050174 5.6205652,21.98068 4.6872332,21.292438 4.4715696,21.133406 3.5667017,20.263244 3.2173478,19.87893 3.0147111,19.656014 2.7250711,19.271074 2.6011614,19.06 2.5495017,18.972 2.4399254,18.81 2.3576585,18.7 2.2101412,18.502753 1.5431926,17.206923 1.3488695,16.74 1.293934,16.608 1.1854061,16.302 1.1076964,16.06 0.75960492,14.975989 0.64009172,14.272506 0.61162444,13.14 0.58087112,11.916549 0.70610224,10.994142 1.0482658,9.9238576 1.7529704,7.719548 3.130114,5.9161432 5.09564,4.6237168 L 5.5592396,4.3188784 5.56962,2.3694391 5.58,0.42 h 8.438197 8.438196 l 0.02285,0.0967827 c 0.01432,0.0606628 0.06794,0.11291168 0.143676,0.14 0.25884,0.092581 0.409995,0.2220252 0.484384,0.4148113 C 23.176705,1.2514602 23.18,1.6262372 23.18,9.34 v 8.08 l -0.09281,0.188433 c -0.07647,0.155253 -0.132813,0.208077 -0.32,0.3 L 22.54,18.02 21.26,18.04 c -0.92229,0.01441 -1.304555,0.03405 -1.367866,0.07027 -0.111886,0.06401 -0.369735,0.399109 -0.706956,0.918766 -0.145684,0.224498 -0.386447,0.548075 -0.535029,0.71906 -0.331718,0.381734 -1.292047,1.332302 -1.510149,1.494798 -0.896491,0.667932 -1.353837,0.95039 -1.94871,1.203532 -0.158094,0.06728 -0.326173,0.147694 -0.373509,0.17871 -0.272942,0.178839 -1.658872,0.559814 -2.458039,0.675686 -0.441531,0.06402 -1.977442,0.112613 -2.339742,0.07403 z m 1.16,-0.854897 c 0.442421,-0.04021 1.015088,-0.144577 1.068936,-0.194821 0.01591,-0.01485 -0.0067,-0.08058 -0.05021,-0.146063 -0.04353,-0.06548 -0.115994,-0.176145 -0.161027,-0.245911 -0.142201,-0.2203 -0.593999,-0.531221 -0.877697,-0.60402 -0.495928,-0.127259 -0.874812,-0.093 -1.2911824,0.116752 C 9.6506232,21.555802 9.32,21.845558 9.32,21.926864 c 0,0.02047 0.061769,0.06303 0.1372648,0.09457 0.1840428,0.0769 0.19301,0.101496 0.1020444,0.27992 -0.042955,0.08425 -0.07265,0.158637 -0.06599,0.165297 0.028588,0.02859 0.5940978,0.08363 0.9066808,0.08826 0.187,0.0028 0.538,-0.01297 0.78,-0.03496 z m 6.539334,-5.355267 0.779334,-0.02468 0.08633,-0.16 c 0.04748,-0.088 0.09849,-0.2005 0.113361,-0.25 0.02353,-0.07836 0.01245,-0.09008 -0.08566,-0.09061 -0.242255,-0.0013 -0.231637,0.07292 -0.244264,-1.707904 -0.0064,-0.897316 -0.0015,-1.671984 0.01076,-1.721484 0.02176,-0.0877 0.03594,-0.09 0.553568,-0.09 0.359852,0 0.546724,-0.01549 0.579238,-0.048 0.05291,-0.05291 0.06136,-0.195173 0.023,-0.387 L 19.51,12.56 h -0.535858 c -0.519514,0 -0.537129,-0.0028 -0.577554,-0.09151 -0.02847,-0.06249 -0.03137,-0.611127 -0.0091,-1.73 L 18.42,9.1 18.52,9.0866128 C 18.575,9.07925 18.63577,9.0580796 18.655045,9.039568 18.714688,8.982286 17.929675,7.6 17.837502,7.6 c -0.01914,0 -0.0399,0.1935 -0.04615,0.43 L 17.78,8.46 H 16.06 14.34 L 14.328688,8.0098048 14.317376,7.5596096 14.088688,7.584912 C 13.96291,7.5988288 13.842,7.6267332 13.82,7.646922 c -0.022,0.020189 -0.049,0.2112108 -0.06,0.4244928 -0.01801,0.3491724 -0.02797,0.388976 -0.1,0.3997428 -0.228541,0.034159 -0.250286,0.051541 -0.35423,0.283158 C 13.247597,8.883944 13.2,9.0012528 13.2,9.015002 13.2,9.0287508 13.305796,9.04 13.435102,9.04 c 0.149904,0 0.251532,0.019796 0.280438,0.054627 0.03258,0.039256 0.0424,0.5316464 0.0349,1.75 L 13.74,12.54 l -1.7,0.01052 c -1.562672,0.0097 -1.704039,0.005 -1.75,-0.05764 -0.03782,-0.05156 -0.05,-0.420268 -0.05,-1.513588 V 9.5338592 l -0.199424,0.040852 C 9.8439724,9.6149848 9.840296,9.6185088 9.7805764,9.8239376 9.7323584,9.9898012 9.72,10.280994 9.72,11.251258 c 0,0.951284 -0.011417,1.228422 -0.051994,1.262097 -0.028596,0.02373 -0.2034076,0.04844 -0.3884696,0.0549 L 8.9430604,12.58 8.871836,12.814315 c -0.039173,0.128873 -0.0613,0.250373 -0.04917,0.27 0.01213,0.01963 0.1987888,0.03568 0.4147964,0.03568 0.2955956,0 0.4047352,0.01445 0.4412288,0.05842 0.037471,0.04515 0.040856,0.438193 0.014898,1.73 L 9.66,16.58 8.26,16.6 6.86,16.62 6.834904,16.84 c -0.013802,0.121 -0.029434,0.238 -0.034737,0.26 -0.0053,0.022 -0.00751,0.0535 -0.0049,0.07 0.00559,0.03541 9.788466,0.03065 10.924071,-0.0053 z M 15.62,16.600846 14.34,16.58 v -1.72 -1.72 l 1.71737,-0.01044 c 1.347356,-0.0082 1.724269,4.32e-4 1.749388,0.04 0.01761,0.02774 0.03229,0.791649 0.03263,1.697578 5.36e-4,1.444609 -0.0071,1.654872 -0.06225,1.71 -0.05026,0.05026 -0.144435,0.06102 -0.47,0.0537 -0.223929,-0.005 -0.983143,-0.01853 -1.687143,-0.03 z M 10.301937,16.55 c -0.0086,-0.0275 -0.02448,-0.782124 -0.03539,-1.676943 -0.01467,-1.203526 -0.0077,-1.643488 0.02681,-1.690517 0.04157,-0.05666 0.23146,-0.06243 1.746645,-0.05306 l 1.7,0.01052 0.01112,1.64 c 0.0061,0.902 0.0013,1.6805 -0.01076,1.73 l -0.02188,0.09 h -1.700494 c -1.325433,0 -1.703923,-0.01103 -1.716045,-0.05 z m 4.04473,-4.016667 C 14.332,12.518667 14.32,11.746871 14.32,10.818231 c 0,-1.450541 0.0084,-1.6954374 0.05988,-1.7381322 0.04629,-0.038416 0.436249,-0.046057 1.717903,-0.033662 0.911912,0.00882 1.672465,0.030468 1.690119,0.048108 0.01765,0.01764 0.03828,0.7782112 0.04584,1.6901582 0.01044,1.259937 0.0021,1.672159 -0.0349,1.716692 -0.04131,0.04978 -0.302898,0.05861 -1.737073,0.05861 -0.92864,0 -1.700436,-0.012 -1.715102,-0.02667 z m 7.403773,4.073422 c 0.03956,-0.02511 0.04819,-0.398036 0.04,-1.729387 L 21.78,13.18 20.9948,13.16917 20.2096,13.15834 20.18219,13.509169 c -0.07136,0.913507 -0.261652,1.828944 -0.545795,2.625711 -0.0853,0.239184 -0.14532,0.450684 -0.133383,0.47 0.02712,0.04389 2.178418,0.04568 2.247424,0.0019 z M 6.0444748,15.88 H 6.1989496 L 6.2094748,14.51 6.22,13.14 7.2765808,13.12 8.333162,13.1 8.4034808,12.9 C 8.53312,12.531282 8.6276548,12.562634 7.35,12.550623 L 6.22,12.54 6.2094828,10.84 C 6.1998148,9.2773284 6.2044716,9.1359608 6.2671276,9.09 6.3185124,9.0523072 6.6714396,9.04 7.700936,9.04 H 9.066582 L 9.050418,8.81 C 9.041528,8.6835 9.0272016,8.557734 9.018582,8.53052 9.0066128,8.4927312 8.6741396,8.4785544 7.6114548,8.47052 L 6.22,8.46 6.2341564,6.8673928 c 0.00779,-0.8759336 0.027078,-1.6409336 0.04287,-1.7 L 6.30574,5.06 7.9677832,5.0495652 9.629826,5.0391304 9.6549132,5.1645652 c 0.013798,0.068989 0.025362,0.6856848 0.025699,1.3704348 3.2e-4,0.68475 0.013837,1.2654548 0.03,1.2904552 0.016163,0.025 0.1463876,0.052 0.2893876,0.06 L 10.26,7.9 10.282286,6.48 c 0.01226,-0.781 0.02576,-1.4245 0.03,-1.43 0.0042,-0.0055 0.761788,-0.01 1.683434,-0.01 1.491139,0 1.678395,0.00697 1.7,0.063272 C 13.70907,5.138071 13.72,5.325594 13.72,5.5199896 v 0.353446 l 0.29,0.01477 c 0.1595,0.00812 0.3035,0.00854 0.32,9.2e-4 0.0165,-0.00762 0.03,-0.180186 0.03,-0.3834876 0,-0.2341636 0.01759,-0.3872316 0.048,-0.4176392 0.0286,-0.028595 0.17009,-0.048514 0.35,-0.049272 0.280754,-0.00118 0.296372,-0.00564 0.222,-0.063352 -0.09298,-0.07215 -0.884489,-0.4754876 -1.119686,-0.5705676 -0.138838,-0.056126 -0.382595,-0.064808 -1.819599,-0.064808 -1.575742,0 -1.660003,-0.00368 -1.673542,-0.073164 -0.0078,-0.04024 -0.0033,-0.1167404 0.01005,-0.17 0.02384,-0.094971 0.03257,-0.096825 0.453542,-0.096243 0.412286,5.68e-4 1.393605,0.055839 1.769238,0.099645 0.326356,0.03806 0.02313,-0.058705 -0.5,-0.1595596 C 10.933567,3.7158003 10.086926,3.6986139 9.0211996,3.878179 8.4210336,3.9793014 7.6411304,4.178722 7.6874632,4.2192144 7.6943584,4.2252408 7.952,4.198446 8.26,4.1596708 8.568,4.1208956 8.9856936,4.0762596 9.1882076,4.0604796 l 0.368208,-0.02869 0.026106,0.1040152 C 9.6369324,4.3525936 9.59732,4.3726788 9.1692972,4.3453292 8.9551836,4.331648 8.438,4.3182084 8.02,4.315464 7.3004488,4.3107392 7.2445976,4.315912 6.9705992,4.4126492 6.6204396,4.5362764 5.813162,4.9333996 5.6681472,5.0533632 l -0.1047268,0.086635 0.036672,1.84 c 0.02017,1.012 0.0374,3.4397498 0.03829,5.3949998 L 5.64,15.93 5.765,15.905 C 5.83375,15.89125 5.9595136,15.88 6.0444748,15.88 Z M 21.78,10.86 V 9.1 L 20.63,9.089386 c -0.65917,-0.00608 -1.15,0.00469 -1.15,0.025238 0,0.019718 0.04663,0.159494 0.103615,0.3106132 0.297787,0.7896638 0.495928,1.6915508 0.581223,2.6455818 l 0.05103,0.570819 0.782063,-0.01082 L 21.78,12.62 Z M 12.818387,8.8122852 c 0.05734,-0.1252432 0.09522,-0.2512432 0.08419,-0.28 C 12.887011,8.4917272 12.708637,8.48 12.10729,8.48 c -0.426371,0 -0.908436,0.011399 -1.071255,0.025332 L 10.74,8.530664 10.735174,8.785332 10.730348,9.04 h 0.991894 0.991894 z M 21.78,6.8 V 5.06 h -1.72 -1.72 l -0.01067,1.0032704 -0.01067,1.0032708 0.241205,0.366742 c 0.132663,0.201708 0.332702,0.5379832 0.444532,0.7472784 L 19.207717,8.561098 20.493859,8.5505492 21.78,8.54 Z M 17.786713,5.05338 C 17.778313,5.04498 17.450789,5.043033 17.058881,5.04905 L 16.346321,5.06 16.68316,5.3444952 c 0.185262,0.156472 0.50784,0.45809 0.71684,0.6702624 l 0.38,0.3857672 0.01099,-0.665936 C 17.79699,5.3683236 17.79509,5.06178 17.78669,5.05338 Z M 17.78,2.78 V 1.06 H 16.04 14.3 l -0.0092,1.4 -0.0092,1.4 0.429221,0.2080568 C 14.94685,4.182488 15.239,4.3311392 15.36,4.3983928 L 15.58,4.5206724 16.68,4.510336 17.78,4.5 Z m 4,0 V 1.06 h -1.72 -1.72 l -0.01044,1.6753675 c -0.0076,1.2111506 0.0022,1.6906245 0.03525,1.7304301 0.03773,0.045464 0.339387,0.053244 1.730443,0.044632 L 21.78,4.5 Z M 6.5864556,3.8262268 C 7.3254244,3.5109471 8.3379772,3.2411938 9.1588056,3.1409293 9.4331488,3.1074182 9.662958,3.08 9.6694924,3.08 c 0.00653,0 0.00707,-0.4545 0.0012,-1.01 L 9.66,1.06 H 7.96 6.26 L 6.249501,2.51 c -0.00577,0.7975 -0.00287,1.45 0.00646,1.45 0.00932,0 0.1580496,-0.060198 0.3304992,-0.1337732 z M 13.750554,2.35 13.74,1.06 h -1.76 -1.76 l -0.01069,0.9880572 -0.0107,0.9880572 0.130695,0.019952 C 10.401188,3.0670394 10.703,3.0850587 11,3.0961088 c 0.782211,0.029103 1.904951,0.2405408 2.54,0.4783408 0.088,0.032952 0.173749,0.061182 0.190554,0.062732 0.0168,0.00155 0.02581,-0.5776815 0.02,-1.2871816 z"
       id="path826"
       inkscape:connector-curvature="0" />
    <path
       style="fill:#f5a898;stroke-width:1"
       d="M 10.1,23.279334 C 9.05645,23.209367 7.8604556,22.929524 7.06,22.568026 6.5473068,22.336485 5.5871388,21.841327 5.5,21.763534 5.456,21.724253 5.2411784,21.56873 5.0226188,21.417928 4.6482588,21.159625 3.52,20.154587 3.52,20.079415 c 0,-0.01907 -0.1246965,-0.169149 -0.2771034,-0.33352 -0.3173169,-0.342227 -0.501513,-0.603412 -0.4660317,-0.660822 0.013442,-0.02175 0.00337,-0.05257 -0.022393,-0.06849 -0.031222,-0.0193 -0.036046,-0.01149 -0.014472,0.02342 0.021413,0.03465 0.016738,0.04271 -0.01382,0.02382 C 2.7007812,19.048122 2.68,19.009633 2.68,18.978288 2.68,18.946942 2.5802136,18.782223 2.4582524,18.612245 1.5951709,17.409361 0.95649116,15.829623 0.73909192,14.36 0.27360529,11.213301 1.3023678,8.1173844 3.548188,5.9064184 4.076796,5.3860144 4.3895368,5.1335332 5.0496244,4.6942812 L 5.5592488,4.3551548 5.5696244,2.3875773 5.58,0.42 h 8.4385 8.438499 l 0.03577,0.15124664 c 0.02741,0.11591184 0.06529,0.16358088 0.162125,0.2040418 0.192546,0.0804508 0.37566,0.31291976 0.404104,0.51302366 0.01342,0.094428 0.01914,3.7724815 0.0127,8.1734515 -0.01098,7.5055284 -0.01599,8.0083104 -0.08088,8.1073364 -0.03805,0.05807 -0.135611,0.156272 -0.216809,0.218237 L 22.626382,17.9 l -1.304252,0.02096 -1.304251,0.02096 -0.184734,0.108262 c -0.148916,0.08727 -0.250291,0.207299 -0.522837,0.61904 -0.185955,0.280928 -0.356348,0.544574 -0.37865,0.58588 -0.07435,0.1377 -0.785778,0.914479 -1.263452,1.379504 -0.700298,0.681755 -1.752752,1.404685 -2.508206,1.722886 -0.121,0.05097 -0.31,0.136693 -0.42,0.190505 -0.540837,0.264579 -1.676657,0.567555 -2.5,0.666865 -0.648504,0.07822 -1.536088,0.104963 -2.14,0.06447 z m 1.814865,-0.799208 c 1.222504,-0.213763 2.458999,-0.674848 3.298581,-1.230032 0.27257,-0.18024 0.273348,-0.181282 0.243044,-0.325456 C 15.43977,20.845087 15.424414,20.69 15.422366,20.58 15.41847,20.37067 15.390094,20.301452 15.195672,20.026991 15.130611,19.935146 15.047215,19.815 15.010348,19.76 14.837161,19.501634 14.342372,18.997018 13.984134,18.713404 13.766408,18.541032 13.571651,18.4 13.551341,18.4 13.531031,18.4 13.437168,18.34685 13.342757,18.281897 13.248345,18.21694 13.092102,18.133091 12.99555,18.095565 12.898997,18.05804 12.8,18.012057 12.775555,17.993381 12.705714,17.940023 11.96936,17.718755 11.66,17.658166 c -1.799994,-0.35253 -3.8077516,0.332071 -5.0293544,1.7149 -0.2536616,0.28714 -0.6522188,0.873897 -0.7905152,1.163799 l -0.093914,0.196865 0.2628788,0.234011 c 0.259242,0.230773 0.2623028,0.235887 0.2212608,0.369614 -0.02289,0.07458 -0.030187,0.165391 -0.016216,0.201799 0.036202,0.09434 0.7580264,0.423134 1.3494656,0.614688 0.5565876,0.180266 1.3040444,0.34207 1.856394,0.401859 0.5983614,0.06477 1.9214544,0.02469 2.4948654,-0.07558 z M 15.76,17.254893 c 1.892103,-0.01792 2.716803,-0.03893 2.756156,-0.07023 0.07522,-0.05983 0.2898,-0.542665 0.261507,-0.588443 C 18.765352,16.576298 18.685108,16.56 18.599344,16.56 h -0.155935 l -0.0117,-1.63 c -0.0064,-0.8965 -0.0051,-1.6615 0.003,-1.7 0.01308,-0.06244 0.07234,-0.07 0.548593,-0.07 0.48694,0 0.537571,-0.0068 0.575334,-0.07737 0.04685,-0.08754 0.05318,-0.253773 0.01663,-0.436532 l -0.02478,-0.123903 -0.54522,-0.0111 L 18.46,12.5 18.447953,11.08 c -0.0066,-0.781 -6.92e-4,-1.5325 0.01318,-1.67 0.0234,-0.2318288 0.03236,-0.25 0.123303,-0.25 0.05539,0 0.109424,-0.029584 0.124154,-0.06797 C 18.759432,8.959548 17.94499,7.5390036 17.762069,7.4411072 17.721128,7.4191964 17.568918,7.2492404 17.423825,7.0634268 16.694574,6.1295152 15.509971,5.1682016 14.438691,4.6409688 13.861046,4.3566796 12.906135,4.037678 12.224586,3.901316 10.345032,3.5252603 8.4400464,3.7308732 6.6263352,4.505558 5.4485452,5.0086236 4.0502468,6.1280672 3.2221312,7.2308796 2.9583453,7.5821672 2.6707043,8.0440376 2.6984428,8.071776 2.7075955,8.0809288 2.9096902,7.98994 3.1475421,7.8695784 3.8584565,7.5098308 5.4187468,6.8854132 5.4724856,6.939152 c 0.063234,0.063235 0.097084,1.8234292 0.099104,5.153435 l 0.00235,3.872587 0.1030312,-0.03005 C 5.733636,15.918588 5.888,15.902224 6.02,15.898754 l 0.24,-0.0063 V 14.536222 13.18 l 1.036842,-0.02 1.0368416,-0.02 0.0924,-0.3 c 0.05082,-0.165 0.092741,-0.3045 0.093158,-0.31 4.16e-4,-0.0055 -0.48377,-0.01 -1.0759704,-0.01 -0.5922008,0 -1.1052008,-0.01093 -1.14,-0.02428 C 6.247024,12.474136 6.24,12.292435 6.24,10.858992 6.24,9.9721452 6.2509256,9.2180708 6.2642796,9.1832716 6.2857736,9.1272592 6.4477092,9.12 7.6757056,9.12 H 9.062852 L 9.061424,8.7806132 9.06,8.441226 7.68,8.4306132 6.3,8.42 6.2884628,8.0226288 C 6.277536,7.6462948 6.33319,6.6934764 6.36814,6.6585268 6.3995348,6.627132 7.433038,6.406112 7.9240492,6.325788 8.421202,6.2444592 9.0231524,6.1715072 9.36,6.1517612 l 0.18,-0.010552 0.029408,0.2393952 c 0.016174,0.1316672 0.040479,0.520966 0.05401,0.865108 l 0.024603,0.6257128 0.2659896,0.018144 c 0.1462944,0.00998 0.2944694,0.030675 0.3292794,0.045992 0.05603,0.024652 0.06802,-0.075918 0.10455,-0.8764064 0.02269,-0.49734 0.05917,-0.9221656 0.08106,-0.9440572 0.0506,-0.050599 1.554567,0.020162 2.24397,0.105578 l 0.492873,0.061066 0.182221,-0.1603972 c 0.200193,-0.1762172 0.375867,-0.240782 0.656065,-0.2411216 0.391476,-4.76e-4 0.657253,0.1706916 0.839333,0.540548 0.105702,0.2147116 0.142762,0.2552268 0.252247,0.2757664 0.07059,0.013242 0.424451,0.1210436 0.786365,0.2395588 0.55606,0.182092 0.908696,0.315004 1.68356,0.6345504 C 17.681237,7.6183612 17.72,7.7715036 17.72,8.1809048 v 0.2097388 l -1.53,0.028864 c -0.8415,0.015875 -1.584,0.02248 -1.65,0.014678 L 14.42,8.42 14.40865,7.965688 c -0.01119,-0.4477568 -0.01263,-0.4539468 -0.1,-0.4289756 -0.04876,0.013935 -0.175039,0.036488 -0.280625,0.050118 -0.162382,0.020961 -0.202043,0.043926 -0.257289,0.1489756 -0.03592,0.068306 -0.07553,0.250194 -0.08803,0.404194 -0.02155,0.2657464 -0.02806,0.28062 -0.127795,0.2921824 -0.08675,0.010057 -0.126458,0.058921 -0.227558,0.28 C 13.144828,9.1113304 13.140867,9.0969896 13.44,9.12 l 0.26,0.02 0.01045,1.635356 c 0.0075,1.173974 -0.0023,1.650772 -0.0349,1.69 -0.03698,0.04456 -0.346683,0.05464 -1.678093,0.05464 -0.968466,0 -1.642136,-0.0152 -1.655832,-0.03736 -0.0127,-0.02055 -0.03107,-0.691049 -0.04082,-1.49 -0.0097,-0.798951 -0.03192,-1.4517482 -0.04927,-1.450659 -0.01735,0.00109 -0.116884,0.016609 -0.221188,0.034488 L 9.8407144,9.6089764 9.7603572,9.8788008 C 9.6976804,10.089258 9.6788636,10.275289 9.674836,10.724312 9.671996,11.040941 9.6584956,11.57 9.644836,11.9 L 9.62,12.5 9.2840864,12.52 8.9481728,12.54 8.85971,12.84 8.7712472,13.14 9.1956236,13.16 9.62,13.18 l 0.012645,0.9 c 0.00696,0.495 4.88e-4,1.2465 -0.01437,1.67 L 9.5912596,16.52 8.54563,16.52024 C 7.9705336,16.52036 7.3515,16.53204 7.17,16.546169 l -0.33,0.02569 v 0.196058 c 0,0.107831 -0.028532,0.251232 -0.063404,0.318667 -0.036078,0.06977 -0.048367,0.137646 -0.028514,0.157499 0.019189,0.01919 0.6822208,0.04125 1.473404,0.04902 1.4524656,0.01426 2.625915,0.0083 7.538514,-0.03821 z M 14.419153,16.510445 C 14.40888,16.4827 14.395868,15.722 14.390238,14.82 L 14.38,13.18 l 1.689129,-0.01043 1.689129,-0.01043 0.02212,0.09043 c 0.01216,0.04974 0.0081,0.810434 -0.0091,1.690434 l -0.03125,1.6 -1.651085,0.01045 c -1.299722,0.0082 -1.655059,-2.8e-4 -1.669762,-0.04 z M 10.341727,15.71 c -0.01489,-0.4455 -0.02137,-1.197 -0.0144,-1.67 l 0.01267,-0.86 1.665554,-0.01043 c 1.501168,-0.0094 1.667995,-0.0041 1.6903,0.05405 0.01361,0.03547 0.01269,0.791665 -0.002,1.680435 L 13.667017,16.52 h -1.649108 -1.649108 z m 4.036561,-3.240039 c -0.01056,-0.02752 -0.0145,-0.788021 -0.0087,-1.69 L 14.38,9.14 h 1.68 1.68 l 0.02825,1.638006 c 0.01987,1.151859 0.01545,1.653438 -0.0149,1.69 -0.06194,0.07463 -3.346451,0.07653 -3.375068,0.002 z m 7.372152,4.136794 c 0.03956,-0.02511 0.04819,-0.398036 0.04,-1.729387 L 21.78,13.18 l -0.805201,-0.01081 -0.805201,-0.01081 -0.02741,0.350813 c -0.07736,0.990269 -0.275152,1.905262 -0.593435,2.745243 -0.09783,0.258186 -0.109271,0.320683 -0.06395,0.349387 0.06916,0.0438 2.19691,0.04656 2.265633,0.0029 z M 21.78,10.86 V 9.1 L 20.61,9.089396 c -0.6435,-0.00583 -1.169846,0.00317 -1.169657,0.02 2e-4,0.016832 0.07353,0.237604 0.162976,0.490604 0.291744,0.82519 0.480519,1.744098 0.540459,2.63081 l 0.02777,0.41081 0.804226,-0.01081 L 21.78,12.62 Z M 12.818789,8.8143668 C 12.896455,8.6462684 12.96,8.4932684 12.96,8.4743668 12.96,8.4554652 12.454897,8.44 11.837549,8.44 h -1.122451 l 0.02606,0.1737532 c 0.01433,0.095564 0.0082,0.2383504 -0.01358,0.3173024 -0.0218,0.078952 -0.02942,0.1537632 -0.01694,0.1662468 C 10.72312,9.109786 11.170788,9.12 11.705456,9.12 h 0.972122 z M 21.78,6.8 V 5.06 h -1.72 -1.72 l -0.01069,1.0362444 -0.01069,1.0362448 0.216363,0.3251556 c 0.119,0.1788356 0.312809,0.499912 0.430688,0.7135028 L 19.18,8.5594948 20.48,8.5497472 21.78,8.54 Z M 17.786732,5.0533984 c -0.0084,-0.00836 -0.350237,-0.010299 -0.759719,-0.0043 L 16.282501,5.06 16.59125,5.3086228 C 16.761063,5.4453656 17.098,5.7562044 17.34,5.9993764 l 0.44,0.4421304 0.01097,-0.6864512 c 0.006,-0.377548 0.0041,-0.6932936 -0.0042,-0.7016572 z M 17.78,2.78 V 1.06 H 16.04 14.3 L 14.28949,2.4665269 14.27898,3.8730538 14.889488,4.1937252 15.5,4.5143964 16.64,4.5071984 17.78,4.5 Z m 4,0 V 1.06 h -1.72 -1.72 l -0.01044,1.6753675 c -0.0076,1.2111506 0.0022,1.6906245 0.03525,1.7304301 0.03773,0.045464 0.339387,0.053244 1.730443,0.044632 L 21.78,4.5 Z M 6.84,3.7660906 C 7.4934228,3.5072512 8.4055192,3.269338 9.0736696,3.1834553 9.345188,3.1485549 9.592992,3.12 9.6243452,3.12 c 0.048141,0 0.055346,-0.1601637 0.04633,-1.03 L 9.66,1.06 H 7.96 6.26 L 6.249504,2.5334988 c -0.00577,0.8104244 0.00323,1.4674244 0.02,1.46 C 6.2862768,3.9860745 6.543,3.8837408 6.84,3.7660906 Z M 13.741669,1.0899249 C 13.726252,1.04975 13.356827,1.0413319 11.971094,1.0495788 L 10.22,1.06 l -0.01068,1.0055008 -0.01068,1.0055007 0.530678,0.027789 c 0.987212,0.051697 1.85968,0.2025718 2.650682,0.4583798 l 0.36,0.1164231 0.01057,-1.2664506 c 0.0058,-0.6965478 0.0018,-1.2892959 -0.0089,-1.3172179 z"
       id="path824"
       inkscape:connector-curvature="0" />
    <path
       style="fill:#93b6d1;stroke-width:1"
       d="M 10.1,23.279334 C 9.05645,23.209367 7.8604556,22.929524 7.06,22.568026 6.5473068,22.336485 5.5871388,21.841327 5.5,21.763534 5.456,21.724253 5.2411784,21.56873 5.0226188,21.417928 4.6482588,21.159625 3.52,20.154587 3.52,20.079415 3.52,20.06035 3.3936461,19.908479 3.2392135,19.741923 2.9988512,19.482692 2.68,19.050039 2.68,18.983119 c 0,-0.0114 0.1845,0.180256 0.41,0.425898 0.4195324,0.457006 1.1487208,1.108867 1.4571604,1.302635 0.094858,0.05959 0.348052,0.221985 0.562654,0.360875 1.2293656,0.795641 2.816628,1.350002 4.2701856,1.491387 0.597376,0.05811 1.922384,0.02489 2.5,-0.06266 C 13.652922,22.2325 15.228503,21.50401 16.640868,20.3 c 0.343702,-0.292999 0.856226,-0.845963 0.92597,-0.999033 0.03158,-0.06932 0.0218,-0.126423 -0.04362,-0.254653 -0.06142,-0.120401 -0.07791,-0.206178 -0.06071,-0.315806 0.02022,-0.12886 0.0011,-0.185027 -0.133149,-0.390508 -0.08622,-0.132 -0.30227,-0.411 -0.4801,-0.62 l -0.323327,-0.38 0.12703,-0.01171 c 0.06987,-0.0064 0.5225,-0.02444 1.005851,-0.04 L 18.53764,17.26 18.628384,17.1 c 0.04991,-0.088 0.12098,-0.238058 0.157936,-0.333463 0.07742,-0.199871 0.04603,-0.244861 -0.171626,-0.245925 L 18.489388,16.52 18.459829,14.904052 c -0.01626,-0.888771 -0.01731,-1.635771 -0.0023,-1.66 0.01747,-0.02827 0.209087,-0.04427 0.534865,-0.04466 0.279202,-3.2e-4 0.530949,-0.0154 0.559439,-0.03347 0.03702,-0.02348 0.04843,-0.123177 0.04,-0.349387 L 19.58,12.5 19.03,12.488871 c -0.397489,-0.008 -0.551214,-0.02468 -0.554376,-0.06 -0.01374,-0.153398 0.01878,-1.975417 0.03958,-2.218211 L 18.54,9.9213192 18.791608,10.08066 c 0.138384,0.08764 0.259884,0.15934 0.27,0.15934 0.05068,0 0.0033,-0.219295 -0.137607,-0.637314 C 18.838202,9.3482088 18.756499,9.0848144 18.74244,9.0173652 18.711291,8.8679224 18.21432,7.9854164 17.985844,7.6738248 17.68388,7.262012 17.04767,6.5355352 16.711365,6.218522 15.006642,4.6115852 13.007304,3.7826978 10.618078,3.6923598 8.8593412,3.625861 6.8427364,4.1885224 5.44,5.1371168 4.8442568,5.5399856 4.50666,5.8110428 4.044722,6.2573888 3.0789525,7.1905608 2.3146101,8.350192 1.8678867,9.56 1.706806,9.996236 1.5345909,10.667924 1.5737775,10.707111 c 0.014596,0.0146 0.066967,-0.0097 0.1163802,-0.05392 C 1.8480688,10.511786 2.6829944,9.9782232 3.22,9.675542 3.9259628,9.2776288 5.4171812,8.603848 5.4715516,8.6582184 c 0.057187,0.057187 0.091318,2.4042506 0.068562,4.7147386 l -0.026326,2.672957 0.110344,-0.0723 c 0.1053392,-0.06902 0.5041588,-0.100892 0.6516384,-0.05207 0.046855,0.01551 0.053283,-0.119022 0.040209,-0.84154 -0.00856,-0.473 -0.015655,-1.085 -0.01577,-1.36 l -2e-4,-0.5 1.0057876,-0.01068 1.005788,-0.01068 L 8.4273336,12.83993 8.5430828,12.481217 7.4215456,12.470608 6.3,12.46 6.2879492,11.06 c -0.00663,-0.77 -7.2e-4,-1.5122684 0.013129,-1.6494852 L 6.3262572,9.1610296 7.7131288,9.1505148 C 8.9229004,9.1413428 9.0979732,9.132338 9.0841268,9.08 9.0421288,8.9212484 9.0358392,8.5625152 9.07381,8.4915664 9.1147608,8.4150488 9.0998476,8.4109244 8.69199,8.3859692 8.4585508,8.371686 7.8863552,8.36 7.420444,8.36 6.9545332,8.36 6.5606324,8.3472992 6.5451092,8.331776 6.4812432,8.26791 7.8840612,7.9603856 8.7022648,7.8588864 9.3137936,7.7830256 9.56,7.7820232 9.56,7.855394 9.56,7.89882 9.614032,7.906451 9.8100832,7.890714 9.9836548,7.876781 10.105034,7.889384 10.20682,7.931916 10.37651,8.0028164 10.4,7.9901076 10.4,7.8274012 V 7.7081356 l 0.61,0.027407 c 0.3355,0.015074 0.907,0.056767 1.27,0.092651 0.956669,0.09457 0.876074,0.1045772 1.02881,-0.127736 0.145721,-0.2216444 0.164259,-0.343296 0.06485,-0.42556 -0.105648,-0.087427 -0.211827,-0.3599744 -0.212783,-0.5461824 -0.0017,-0.3236736 0.185723,-0.6171716 0.495826,-0.7766116 0.23387,-0.1202448 0.603906,-0.089001 0.830287,0.070106 0.362543,0.2548048 0.4727,0.762818 0.245199,1.1307912 C 14.587649,7.3867896 14.323058,7.5539324 14.045459,7.58681 13.84272,7.610822 13.832032,7.618382 13.737712,7.8045132 13.67787,7.922608 13.64,8.0659364 13.64,8.174334 c 0,0.1554332 -0.01218,0.1800508 -0.1,0.2020916 -0.055,0.013804 -0.1,0.040221 -0.1,0.058703 0,0.018482 -0.06147,0.1666396 -0.136591,0.329238 C 13.228284,8.9269652 13.164979,9.078 13.162731,9.1 c -0.0022,0.022 0.108718,0.049 0.246591,0.06 L 13.66,9.18 v 1.64 1.64 l -1.61754,0.01046 c -1.098436,0.0071 -1.631132,-0.0031 -1.659895,-0.03189 -0.0277,-0.0277 -0.04735,-0.544718 -0.0568,-1.494257 l -0.01444,-1.4519 -0.145664,0.05204 c -0.08012,0.028622 -0.1850758,0.05283 -0.2332446,0.053796 -0.07462,0.0015 -0.1027352,0.051444 -0.19,0.33754 -0.094539,0.309945 -0.1028028,0.398442 -0.1073888,1.15 -0.00273,0.447819 -0.016233,0.940216 -0.03,1.094216 L 9.58,12.46 9.2734036,12.47162 8.9668072,12.48324 8.8810632,12.771618 c -0.047159,0.158609 -0.0947,0.319238 -0.1056472,0.356955 -0.01774,0.06112 0.024894,0.06982 0.3923408,0.08 L 9.58,13.22 9.5712592,14 c -0.00481,0.429 -0.01806,0.81815 -0.029451,0.864778 -0.017743,0.07263 -0.060462,0.08869 -0.2981144,0.112112 -0.2966128,0.02923 -0.3404872,0.05672 -0.3871412,0.242606 -0.016434,0.06548 -0.1213808,0.209986 -0.233216,0.321132 C 8.3323008,15.829869 8.03486,15.905202 7.6792508,15.779736 L 7.5084432,15.719471 7.1642216,16.015272 6.82,16.311073 6.833688,16.630391 c 0.018814,0.43888 -0.1081596,0.682264 -0.4464236,0.85571 -0.3781772,0.193912 -0.7963068,0.106615 -1.1077668,-0.231279 -0.1844924,-0.20015 -0.2082252,-0.197315 -0.4418324,0.05279 -0.5437556,0.582159 -1.1914792,1.480446 -1.1959886,1.658642 -9.22e-4,0.03644 0.09131,0.203895 0.2049596,0.372121 l 0.2066362,0.305866 -0.068765,0.218147 C 3.926539,20.046287 3.905087,20.074814 3.8478714,20.044086 3.7239749,19.977548 2.9003203,19.105126 2.6523131,18.77774 1.5963841,17.383845 0.95548156,15.815972 0.71565876,14.04 c -0.0661253,-0.489681 -0.0661253,-1.870319 0,-2.36 C 1.1195893,8.6887532 2.7497706,6.1323784 5.24,4.5851372 L 5.54,4.39874 5.56,2.40937 5.58,0.42 h 8.4385 8.438499 l 0.03577,0.15124664 c 0.02741,0.11591184 0.06529,0.16358088 0.162125,0.2040418 0.192546,0.0804508 0.37566,0.31291976 0.404104,0.51302366 0.01342,0.094428 0.01914,3.7724815 0.0127,8.1734515 -0.01098,7.5055284 -0.01599,8.0083104 -0.08088,8.1073364 -0.03805,0.05807 -0.135611,0.156272 -0.216809,0.218237 L 22.626382,17.9 l -1.304252,0.02096 -1.304251,0.02096 -0.184734,0.108262 c -0.148916,0.08727 -0.250291,0.207299 -0.522837,0.61904 -0.185955,0.280928 -0.356348,0.544574 -0.37865,0.58588 -0.07435,0.1377 -0.785778,0.914479 -1.263452,1.379504 -0.700298,0.681755 -1.752752,1.404685 -2.508206,1.722886 -0.121,0.05097 -0.31,0.136693 -0.42,0.190505 -0.540837,0.264579 -1.676657,0.567555 -2.5,0.666865 -0.648504,0.07822 -1.536088,0.104963 -2.14,0.06447 z m 10.463288,-6.64253 c 0.625192,0.0021 1.15941,-0.011 1.187152,-0.02912 0.03955,-0.02584 0.04819,-0.399351 0.04,-1.730317 L 21.78,13.18 l -0.83,-0.01081 -0.83,-0.01081 -3.2e-4,0.190811 c -0.0013,0.76274 -0.253611,1.954715 -0.623049,2.943567 -0.181217,0.485053 -0.212895,0.597747 -0.121918,0.433731 l 0.05187,-0.09351 1.136712,0.0038 z M 21.78,10.86 V 9.1 L 20.585489,9.089398 c -1.128004,-0.010012 -1.192913,-0.00667 -1.165833,0.06 0.01577,0.038831 0.116395,0.3346032 0.223605,0.6572716 C 19.927166,10.661133 20.12,11.70979 20.12,12.399235 v 0.242388 L 20.95,12.630812 21.78,12.62 Z M 12.830494,8.792446 C 13.006334,8.411778 13.004333,8.3329104 12.82,8.3789336 c -0.044,0.010986 -0.542049,0.02022 -1.106776,0.02052 l -1.026776,5.48e-4 0.04038,0.1462468 c 0.04468,0.1618044 0.01213,0.4773124 -0.05341,0.5178208 -0.114288,0.070634 0.145612,0.094758 1.026938,0.09532 l 0.960356,6.12e-4 0.169782,-0.367554 z M 21.78,6.8 V 5.06 h -1.72 -1.72 l -0.01069,1.0119336 c -0.0083,0.7891048 -0.02155,1.0054132 -0.06,0.9823216 -0.03712,-0.022292 -0.03855,-0.015355 -0.0058,0.028066 0.146138,0.1937232 0.519776,0.7992984 0.691524,1.1207916 L 19.156375,8.58 20.468187,8.56 21.78,8.54 Z m -3.971696,-1.0183588 -0.0117,-0.7384504 -0.795053,-0.011595 c -0.437279,-0.00638 -0.792016,-0.0095 -0.788304,-0.00695 0.198669,0.1368316 0.874502,0.7419048 1.18675,1.062496 0.231,0.2371724 0.42,0.4316108 0.42,0.4320848 0,4.76e-4 -0.0053,-0.3314404 -0.0117,-0.7375884 z M 17.78,2.78 V 1.06 H 16.04 14.3 l -0.02,1.42 -0.02,1.42 0.46,0.2266068 c 0.253,0.1246336 0.526689,0.2686336 0.608198,0.32 L 15.476395,4.54 16.628198,4.52 17.78,4.5 Z m 4,0 V 1.06 h -1.72 -1.72 l -0.01044,1.6753675 c -0.0076,1.2111506 0.0022,1.6906245 0.03525,1.7304301 0.03773,0.045464 0.339387,0.053244 1.730443,0.044632 L 21.78,4.5 Z M 6.7,3.841089 C 7.4762,3.52011 8.3759644,3.2885176 9.24,3.1873126 L 9.66,3.1381177 V 2.0990588 1.06 H 7.96 6.26 L 6.24,2.5504675 C 6.2267692,3.5364743 6.2335384,4.0351076 6.26,4.0237172 6.282,4.0142476 6.48,3.9320647 6.7,3.841089 Z M 13.76,2.3900264 13.74,1.06 h -1.76 -1.76 l -0.01072,0.9980821 c -0.0068,0.6360651 -0.0258,1.0074034 -0.0523,1.0237809 -0.02287,0.014134 0.251952,0.036936 0.610716,0.050671 0.966964,0.037019 1.793043,0.1808085 2.652298,0.4616654 0.198,0.064719 0.36,0.1195113 0.36,0.1217616 0,0.00225 -0.009,-0.5944202 -0.02,-1.3259348 z m 2.256712,14.0922586 c -0.515062,-0.02194 -0.526067,-0.02436 -0.7,-0.154573 C 15.079407,16.150064 14.739576,15.937814 14.599654,15.879857 14.495948,15.8369 14.483531,15.81021 14.46309,15.586302 14.450723,15.450836 14.435969,14.863 14.430302,14.28 L 14.42,13.22 h 1.659452 c 1.624076,0 1.659779,0.0017 1.67476,0.07949 0.0084,0.04372 0.0021,0.786218 -0.01414,1.65 l -0.02945,1.570514 -0.585314,-0.0077 c -0.321923,-0.0042 -0.820794,-0.01774 -1.108602,-0.03 z m -2.553022,-1.12902 c -0.06895,-0.04003 -0.418001,-0.14567 -0.96369,-0.29166 -0.283907,-0.07595 -1.080042,-0.17736 -1.62,-0.206344 -0.253,-0.01358 -0.464585,-0.02865 -0.470188,-0.0335 -0.0056,-0.0048 -0.0146,-0.367221 -0.02,-0.805285 L 10.38,13.22 h 1.64 1.64 l -0.01207,0.94 c -0.01208,0.94085 -0.03182,1.241063 -0.08144,1.238784 -0.01457,-6.68e-4 -0.06082,-0.02115 -0.102794,-0.04552 z m 0.954758,-2.922887 c -0.01066,-0.02778 -0.01467,-0.770481 -0.0089,-1.650444 L 14.42,9.18 l 1.385846,0.00733 1.385847,0.00733 0.240319,0.1213124 0.240318,0.1213128 0.02413,0.37136 c 0.01327,0.2042478 0.0285,0.8843598 0.03383,1.5113598 l 0.0097,1.14 -1.651085,0.01044 c -1.300581,0.0082 -1.655199,-2.8e-4 -1.670467,-0.04007 z M 14.48,8.3 c 0,-0.064332 0.04728,-0.073038 0.18955,-0.034906 C 14.790663,8.2975548 14.743348,8.36 14.597639,8.36 14.519738,8.36 14.48,8.3397324 14.48,8.3 Z"
       id="path822"
       inkscape:connector-curvature="0" />
    <path
       style="fill:#f38976;stroke-width:1"
       d="M 10.12,23.056036 C 9.2942868,22.983699 8.321336,22.783716 7.7955644,22.578267 7.6009512,22.50222 7.4296868,22.44 7.4149764,22.44 7.35045,22.44 6.343626,21.9875 6.1709124,21.880877 6.0659108,21.816054 5.899,21.71435 5.8,21.654868 5.4584432,21.449649 5.0022928,21.108651 5.0234768,21.074374 c 0.01764,-0.02854 -0.040036,-0.05022 -0.073477,-0.02761 -0.025074,0.01695 -0.194246,-0.09585 -0.1740476,-0.116045 0.012542,-0.01254 -0.00842,-0.04808 -0.046574,-0.07897 -0.134146,-0.108591 0.073677,0.0111 0.4306216,0.248015 1.007062,0.668407 2.5548364,1.24569 3.88,1.447149 0.6442672,0.09794 2.0460342,0.09827 2.6800002,6.28e-4 1.76664,-0.272107 3.318194,-0.94957 4.68,-2.043452 0.364342,-0.292661 0.967903,-0.897299 1.109921,-1.111902 l 0.103772,-0.156811 -0.08707,-0.179224 c -0.06295,-0.129569 -0.08062,-0.220355 -0.06378,-0.327686 0.01983,-0.126366 -3.8e-5,-0.184185 -0.133476,-0.388463 -0.08622,-0.132 -0.30227,-0.411 -0.4801,-0.62 l -0.323327,-0.38 0.12703,-0.01171 c 0.06987,-0.0064 0.5225,-0.02444 1.005851,-0.04 L 18.53764,17.26 18.628384,17.1 c 0.04991,-0.088 0.12098,-0.238058 0.157936,-0.333463 0.07742,-0.199871 0.04603,-0.244861 -0.171626,-0.245925 L 18.489388,16.52 18.459829,14.904052 c -0.01626,-0.888771 -0.01731,-1.635771 -0.0023,-1.66 0.01747,-0.02827 0.209087,-0.04427 0.534865,-0.04466 0.279202,-3.2e-4 0.530949,-0.0154 0.559439,-0.03347 0.03702,-0.02348 0.04843,-0.123177 0.04,-0.349387 L 19.58,12.5 19.03,12.488871 c -0.397489,-0.008 -0.551214,-0.02468 -0.554376,-0.06 -0.01374,-0.153398 0.01878,-1.975417 0.03958,-2.218211 L 18.54,9.9213192 18.791608,10.08066 c 0.138384,0.08764 0.259884,0.15934 0.27,0.15934 0.05068,0 0.0033,-0.219295 -0.137607,-0.637314 C 18.838202,9.3482088 18.756499,9.0848144 18.74244,9.0173652 18.711291,8.8679224 18.21432,7.9854164 17.985844,7.6738248 17.68388,7.262012 17.04767,6.5355352 16.711365,6.218522 15.006642,4.6115852 13.007304,3.7826978 10.618078,3.6923598 8.8593412,3.625861 6.8427364,4.1885224 5.44,5.1371168 4.8442568,5.5399856 4.50666,5.8110428 4.044722,6.2573888 3.0789525,7.1905608 2.3146101,8.350192 1.8678867,9.56 1.706806,9.996236 1.5345909,10.667924 1.5737775,10.707111 c 0.014596,0.0146 0.066967,-0.0097 0.1163802,-0.05392 C 1.8480688,10.511786 2.6829944,9.9782232 3.22,9.675542 3.9259628,9.2776288 5.4171812,8.603848 5.4715516,8.6582184 c 0.057216,0.057216 0.091316,2.4044416 0.068533,4.7174086 l -0.026355,2.675627 0.1331348,-0.03201 c 0.073224,-0.01761 0.2580184,-0.04264 0.4106532,-0.05563 L 6.335036,15.94 6.3177268,15.08 c -0.00952,-0.473 -0.017403,-1.085 -0.017518,-1.36 l -2e-4,-0.5 1.04,-0.02 1.04,-0.02 0.088584,-0.26 c 0.048721,-0.143 0.089221,-0.30022 0.09,-0.349377 L 8.56,12.481246 7.43,12.470623 6.3,12.46 6.2879492,11.06 c -0.00663,-0.77 -6.96e-4,-1.5125 0.013184,-1.65 l 0.025234,-0.25 1.366816,-6.12e-4 C 8.4449328,9.159068 9.083258,9.1440204 9.111684,9.1259864 9.1505252,9.1013452 9.154176,9.0522868 9.1263764,8.9285596 9.1060312,8.8380092 9.098292,8.6848988 9.1091784,8.5883144 L 9.128972,8.4127068 8.6982636,8.3863536 C 8.461374,8.3718588 7.8863552,8.36 7.420444,8.36 6.9545332,8.36 6.5606324,8.3472992 6.5451092,8.331776 6.4470664,8.2337332 8.7460908,7.8 9.3638144,7.8 9.5170292,7.8 9.554436,7.814403 9.57159,7.88 c 0.018226,0.069694 0.05456,0.08 0.2820612,0.08 0.1436276,0 0.3103188,0.018698 0.3704258,0.04155 0.128635,0.048907 0.174359,0.00262 0.175311,-0.177482 L 10.4,7.7081356 l 0.61,0.027407 c 0.3355,0.015074 0.907,0.056767 1.27,0.092651 0.960869,0.094986 0.87248,0.107544 1.043037,-0.1481936 0.0807,-0.121 0.143769,-0.238 0.14016,-0.26 -0.0036,-0.022 -0.05877,-0.1181276 -0.122589,-0.2136172 -0.08509,-0.1273236 -0.120476,-0.2351264 -0.132713,-0.404296 -0.03088,-0.4269092 0.200483,-0.7498404 0.601627,-0.8397388 0.756195,-0.1694668 1.306825,0.6568756 0.844723,1.267694 -0.133893,0.1769824 -0.296464,0.2527888 -0.608599,0.2837876 L 13.782132,7.54 13.713241,7.72 c -0.03789,0.099 -0.06987,0.28207 -0.07107,0.4068216 -0.0021,0.2205412 -0.0056,0.2275768 -0.126314,0.2540872 -0.107525,0.023616 -0.142556,0.067682 -0.261761,0.32926 -0.07569,0.1660972 -0.13217,0.330758 -0.125503,0.3659132 0.0091,0.048152 0.07616,0.068851 0.271761,0.083918 L 13.66,9.18 v 1.64 1.64 l -1.61754,0.01046 c -1.100902,0.0071 -1.631102,-0.0031 -1.66,-0.032 -0.02788,-0.02788 -0.0474,-0.551179 -0.05685,-1.523977 L 10.31122,9.432966 10.22561,9.458568 C 10.178524,9.4726488 10.072766,9.4945656 9.9905924,9.507272 9.8117292,9.5349292 9.7906116,9.5586188 9.7015876,9.8314752 9.6443376,10.006946 9.6327676,10.197632 9.633632,10.951475 9.634204,11.451164 9.622372,11.995 9.6073368,12.16 l -0.027337,0.3 -0.34,0.02 -0.34,0.02 -0.086508,0.26 c -0.150268,0.45163 -0.1623852,0.435474 0.3365084,0.448647 L 9.58,13.22 9.5712592,14 c -0.00481,0.429 -0.01806,0.81815 -0.029451,0.864778 -0.017743,0.07263 -0.060462,0.08869 -0.2981144,0.112112 -0.2966128,0.02923 -0.3404872,0.05672 -0.3871412,0.242606 -0.016434,0.06548 -0.1213808,0.209986 -0.233216,0.321132 -0.2906996,0.288907 -0.5885308,0.364555 -0.9429588,0.239505 L 7.510697,15.720263 7.1898286,15.99013 c -0.1764776,0.148427 -0.333578,0.266303 -0.349112,0.261946 -0.015534,-0.0044 -0.031635,0.112643 -0.03578,0.26 -0.014354,0.510257 -0.1560032,0.821431 -0.4387176,0.96377 -0.146638,0.07383 -0.5437228,0.133314 -0.5888268,0.08821 -0.013232,-0.01323 -0.036059,-0.02494 -0.050725,-0.02603 C 5.6460732,17.532091 5.52,17.469203 5.52,17.434944 c 0,-0.02182 -0.015916,-0.02983 -0.035368,-0.01781 -0.019452,0.01202 -0.1100916,-0.05921 -0.2014204,-0.158287 -0.188536,-0.204538 -0.2112804,-0.202049 -0.445546,0.04876 -0.5437556,0.582159 -1.1914792,1.480446 -1.1959886,1.658642 -9.22e-4,0.03644 0.09131,0.203895 0.2049596,0.372121 l 0.2066362,0.305866 -0.068765,0.218147 C 3.926539,20.046287 3.905087,20.074814 3.8478714,20.044086 3.7239749,19.977548 2.9003203,19.105126 2.6523131,18.77774 1.5963841,17.383845 0.95548156,15.815972 0.71565876,14.04 c -0.0661253,-0.489681 -0.0661253,-1.870319 0,-2.36 C 1.1216582,8.6734324 2.6905208,6.217588 5.26,4.5664424 6.1081476,4.0214232 7.2889488,3.5521639 8.3823936,3.32558 9.7392028,3.0444215 11.271972,3.0584434 12.6,3.3641629 14.246744,3.7432527 15.705456,4.5134848 17,5.6874612 18.155759,6.7355776 19.098949,8.1795528 19.594823,9.66 c 0.380951,1.137341 0.532597,2.03652 0.536303,3.18 0.0029,0.900918 -0.132182,1.87498 -0.372625,2.686556 -0.113985,0.384738 -0.460532,1.32141 -0.563739,1.523711 -0.04764,0.09338 -0.06648,0.174017 -0.04554,0.194952 0.02011,0.02011 0.742194,0.03113 1.653241,0.02524 L 22.42,17.26 22.44,9.2 c 0.01417,-5.7100205 0.03271,-8.0814473 0.06358,-8.1335603 0.04085,-0.0689548 0.0478,-0.0693437 0.110933,-0.00621 0.03704,0.037042 0.09843,0.1241446 0.136417,0.1935603 0.06477,0.11835 0.06907,0.6195523 0.06907,8.0475044 0,7.7439096 -0.0017,7.9251326 -0.07732,8.0927566 -0.133318,0.29565 -0.149586,0.298931 -1.605964,0.323926 l -1.28328,0.02202 -0.196718,0.120999 c -0.113898,0.07006 -0.244254,0.19636 -0.309628,0.3 -0.688507,1.091525 -0.877482,1.329559 -1.70709,2.150263 -0.570775,0.564649 -1.072747,0.972291 -1.58,1.28309 -0.612841,0.375492 -0.762255,0.454973 -1.205812,0.641429 C 14.586991,22.348102 14.350753,22.44 14.329215,22.44 c -0.02154,0 -0.189923,0.06056 -0.374188,0.13457 -0.409117,0.164329 -1.060581,0.321938 -1.675027,0.405241 -0.446424,0.06052 -1.795713,0.108139 -2.16,0.07622 z M 12.881439,8.832116 C 13.059715,8.463464 13.069426,8.4154952 12.97,8.3946652 12.9315,8.3865992 12.397586,8.389 11.783524,8.4 l -1.116476,0.02 -0.0063,0.34 c -0.0038,0.2036128 0.01085,0.3517884 0.03648,0.3693876 0.02354,0.016163 0.488942,0.029663 1.034233,0.03 l 0.991439,6.12e-4 0.158561,-0.327884 z m 3.135273,7.650169 c -0.515062,-0.02194 -0.526067,-0.02436 -0.7,-0.154573 C 15.079407,16.150064 14.739576,15.937814 14.599654,15.879857 14.495948,15.8369 14.483531,15.81021 14.46309,15.586302 14.450723,15.450836 14.435969,14.863 14.430302,14.28 L 14.42,13.22 h 1.659452 c 1.624076,0 1.659779,0.0017 1.67476,0.07949 0.0084,0.04372 0.0021,0.786218 -0.01414,1.65 l -0.02945,1.570514 -0.585314,-0.0077 c -0.321923,-0.0042 -0.820794,-0.01774 -1.108602,-0.03 z m -2.553022,-1.12902 c -0.06895,-0.04003 -0.418001,-0.14567 -0.96369,-0.29166 -0.283907,-0.07595 -1.080042,-0.17736 -1.62,-0.206344 -0.253,-0.01358 -0.464585,-0.02865 -0.470188,-0.0335 -0.0056,-0.0048 -0.0146,-0.367221 -0.02,-0.805285 L 10.38,13.22 h 1.64 1.64 l -0.01207,0.94 c -0.01208,0.94085 -0.03182,1.241063 -0.08144,1.238784 -0.01457,-6.68e-4 -0.06082,-0.02115 -0.102794,-0.04552 z m 0.954758,-2.922887 c -0.01066,-0.02778 -0.01467,-0.770481 -0.0089,-1.650444 L 14.42,9.18 l 1.385846,0.00733 1.385847,0.00733 0.240319,0.1213124 0.240318,0.1213128 0.02413,0.37136 c 0.01327,0.2042478 0.0285,0.8843598 0.03383,1.5113598 l 0.0097,1.14 -1.651085,0.01044 c -1.300581,0.0082 -1.655199,-2.8e-4 -1.670467,-0.04007 z M 14.48,8.3 c 0,-0.064332 0.04728,-0.073038 0.18955,-0.034906 C 14.790663,8.2975548 14.743348,8.36 14.597639,8.36 14.519738,8.36 14.48,8.3397324 14.48,8.3 Z"
       id="path820"
       inkscape:connector-curvature="0" />
    <path
       style="fill:#ec6254;stroke-width:1"
       d="M 10.12,23.056036 C 9.2942868,22.983699 8.321336,22.783716 7.7955644,22.578267 7.6009512,22.50222 7.4296868,22.44 7.4149764,22.44 7.35045,22.44 6.343626,21.9875 6.1709124,21.880877 6.0659108,21.816054 5.899,21.71435 5.8,21.654868 5.5204484,21.486904 4.9976988,21.108968 5.0175164,21.08915 c 0.00979,-0.0098 0.122348,0.04438 0.250138,0.120361 1.1549252,0.686719 2.4004948,1.128259 3.7723456,1.337253 0.6444596,0.09818 2.045675,0.09852 2.68,6.52e-4 3.012097,-0.464733 5.52448,-2.138966 6.978689,-4.650546 0.164598,-0.284278 0.313228,-0.540118 0.33029,-0.568534 0.02443,-0.04069 0.387871,-0.05344 1.711021,-0.06 L 22.42,17.26 22.44,9.2 c 0.01417,-5.7100205 0.03271,-8.0814473 0.06358,-8.1335603 0.04085,-0.0689548 0.0478,-0.0693437 0.110933,-0.00621 0.03704,0.037042 0.09843,0.1241446 0.136417,0.1935603 0.06477,0.11835 0.06907,0.6195523 0.06907,8.0475044 0,7.7439096 -0.0017,7.9251326 -0.07732,8.0927566 -0.133318,0.29565 -0.149586,0.298931 -1.605964,0.323926 l -1.28328,0.02202 -0.196718,0.120999 c -0.113898,0.07006 -0.244254,0.19636 -0.309628,0.3 -0.688507,1.091525 -0.877482,1.329559 -1.70709,2.150263 -0.570775,0.564649 -1.072747,0.972291 -1.58,1.28309 -0.612841,0.375492 -0.762255,0.454973 -1.205812,0.641429 C 14.586991,22.348102 14.350753,22.44 14.329215,22.44 c -0.02154,0 -0.189923,0.06056 -0.374188,0.13457 -0.409117,0.164329 -1.060581,0.321938 -1.675027,0.405241 -0.446424,0.06052 -1.795713,0.108139 -2.16,0.07622 z M 4.8176452,20.981272 c -0.042705,-0.0323 -0.057349,-0.0593 -0.032543,-0.06 0.024806,-7e-4 0.06751,0.02573 0.094898,0.05873 0.063232,0.07619 0.037392,0.07672 -0.062355,0.0013 z m 0.778646,-3.514343 C 5.4993312,17.41574 5.366,17.29719 5.3,17.203484 5.1930848,17.051686 5.18,17.001148 5.18,16.74 c 0,-0.26186 0.012968,-0.3116 0.1216352,-0.466554 0.097062,-0.138407 0.1657488,-0.187938 0.34,-0.245182 0.2167588,-0.07121 0.6628216,-0.08 0.7985496,-0.01573 0.041527,0.01966 0.1756952,-0.0731 0.4327792,-0.29923 0.3052316,-0.268475 0.3679396,-0.342693 0.3468504,-0.410513 -0.188078,-0.604822 0.1155328,-1.081103 0.758572,-1.189988 0.061517,-0.01042 0.106352,-0.103611 0.2083304,-0.433036 C 8.258186,13.448893 8.3426772,13.215 8.3744748,13.16 c 0.08931,-0.154478 0.1761136,-0.510339 0.2022244,-0.829038 l 0.02368,-0.289038 -0.1301896,0.02321 c -0.071604,0.01277 -0.36419,0.08773 -0.65019,0.166591 -0.4246524,0.11709 -0.6052156,0.146079 -0.9847412,0.158097 -0.4571636,0.01448 -0.465144,0.01321 -0.489454,-0.07755 -0.032022,-0.119562 -0.032524,-1.590563 -6.36e-4,-1.85595 l 0.024476,-0.20368 0.2758732,-0.08885 C 7.142714,10.003656 7.9845936,9.8061872 8.527286,9.7224072 9.3438532,9.5963464 9.3536836,9.59415 9.3773356,9.5325144 9.3895352,9.5007224 9.3479352,9.4084004 9.2848912,9.3273552 9.0811756,9.0654728 9.0450512,8.489672 9.21609,8.2307044 9.3441192,8.03686 9.5180692,7.96 9.8287524,7.96 c 0.3159056,0 0.5082146,0.052334 0.6450476,0.1755408 0.167924,0.1512004 0.19778,0.2589332 0.185447,0.6691684 l -0.01157,0.3847096 0.186159,0.1400724 c 0.102388,0.07704 0.224069,0.1596672 0.270402,0.183616 0.113275,0.058551 1.259954,0.1386972 1.307279,0.091372 0.13652,-0.13652 0.628949,-1.0480736 0.627919,-1.1623628 -3.2e-4,-0.034164 0.100357,-0.279728 0.2237,-0.545698 L 13.487399,7.4128364 13.356281,7.2268172 C 13.253477,7.080968 13.221496,6.9901172 13.208186,6.8061032 13.176998,6.3749276 13.406702,6.052622 13.809522,5.962348 14.565717,5.7928812 15.116347,6.6192236 14.654245,7.230042 14.520212,7.4072108 14.357696,7.4828588 14.04458,7.5138296 L 13.78,7.54 13.675732,7.84649 c -0.05735,0.1685696 -0.142811,0.3665696 -0.189919,0.44 C 13.366611,8.4722972 13.12,8.9930136 13.12,9.0589 c 0,0.029957 -0.03462,0.1352236 -0.07692,0.2339252 -0.04231,0.098701 -0.08281,0.2388996 -0.09,0.3115516 L 12.94,9.7364716 l 0.317632,0.062438 c 0.311466,0.061226 0.318333,0.065142 0.353776,0.2017644 0.04189,0.161479 0.02305,2.17827 -0.02076,2.222039 -0.01614,0.01613 -0.160144,-0.0078 -0.32,-0.05315 -0.612275,-0.173741 -1.449624,-0.288713 -2.288074,-0.314162 -0.306584,-0.0093 -0.565975,-0.02547 -0.576424,-0.03592 C 10.3957,11.809031 10.38554,11.278573 10.38358,10.640685 10.38078,9.7321 10.36881,9.4765908 10.32831,9.4610492 10.276053,9.440996 9.9481092,9.5059524 9.8429724,9.5571816 9.7069528,9.6234588 9.6342568,9.9978268 9.5938704,10.84 9.5401284,11.960676 9.5542284,11.897037 9.3496136,11.942398 9.1893892,11.977918 9.171616,11.996608 9.0285456,12.28 8.8619276,12.610035 8.7213184,13.008472 8.720516,13.152847 8.720236,13.203917 8.65413,13.45889 8.5736212,13.719462 l -0.1463788,0.473769 0.1659052,0.188478 c 0.3133124,0.355941 0.3269136,0.793208 0.035014,1.125663 -0.2427544,0.276482 -0.5874848,0.35778 -0.9564168,0.225551 l -0.1882556,-0.06747 -0.3317444,0.296723 c -0.1824596,0.163198 -0.343638,0.313435 -0.3581748,0.33386 -0.014536,0.02042 -0.016844,0.130022 -0.00513,0.24355 0.02491,0.241323 -0.064443,0.593692 -0.191506,0.755227 C 6.3859624,17.56302 5.92763,17.641855 5.5962912,17.466929 Z M 1.7837624,17.27 C 1.1507725,16.189703 0.74215888,14.650559 0.69263532,13.16 0.6547238,12.018941 0.79657408,10.961386 1.125569,9.9322932 1.6298359,8.3549508 2.3745842,7.1379 3.5571424,5.9586704 4.493656,5.0247932 5.4653908,4.3658876 6.58,3.9089572 7.9096856,3.363857 9.3593148,3.0862455 10.6,3.1391063 c 1.402343,0.059748 2.750063,0.3547005 3.74,0.8185091 0.54875,0.2571018 1.418386,0.748157 1.704252,0.9623354 2.050134,1.5360136 3.354507,3.5377868 3.851267,5.9104002 0.359763,1.718293 0.239764,3.566274 -0.333427,5.134756 -0.185375,0.507262 -0.197008,0.517006 -0.353,0.295699 C 19.107322,16.116424 19.08,16.037322 19.08,15.887068 c 0,-0.180915 -0.01389,-0.205163 -0.273621,-0.477552 L 18.532758,15.122556 18.507993,14.181278 18.483228,13.24 h 0.530386 c 0.359189,0 0.545879,-0.01549 0.578386,-0.048 0.07125,-0.07125 0.06299,-0.636893 -0.01073,-0.734355 C 19.54425,12.408695 19.5218,12.283911 19.52054,12.12 19.51944,11.977 19.49217,11.674535 19.45995,11.447856 19.357127,10.724508 19.23771,10.288824 18.846834,9.2109432 18.435593,8.0769052 17.317847,6.6205388 16.135601,5.6783456 15.643916,5.2864968 14.903479,4.8119788 14.411846,4.5736572 13.905981,4.3284368 12.968866,4.0081064 12.39842,3.8854157 11.004284,3.5855671 9.5011632,3.6046353 8.18,3.9389297 7.0979284,4.2127268 6.1894332,4.605214 5.390434,5.144076 4.2477016,5.9147588 3.3905343,6.7755496 2.6775807,7.8683972 2.0121677,8.888372 1.5533918,10.074192 1.3338056,11.341718 c -0.070039,0.404289 -0.1054824,1.899938 -0.046424,1.958997 0.01506,0.01506 0.2040601,-0.130147 0.42,-0.322683 0.7204308,-0.64235 1.4942922,-1.202753 2.281415,-1.652121 0.4378662,-0.249978 1.4514706,-0.738977 1.4776002,-0.712847 0.038009,0.03801 0.056557,1.468634 0.025728,1.984445 L 5.46,13.135018 5.22,13.271614 C 4.1084216,13.90427 3.1424188,14.699426 2.2262143,15.735918 1.8296173,16.184585 1.8458718,16.1023 2.0281741,16.738451 l 0.1027217,0.358451 -0.091006,0.171549 C 1.989836,17.362803 1.9341432,17.44 1.9161277,17.44 c -0.018016,0 -0.07758,-0.0765 -0.1323653,-0.17 z M 17.64,14.334571 c -0.03589,-0.08153 -1.075143,-0.826321 -1.233419,-0.883947 -0.03662,-0.01333 -0.106241,-0.05461 -0.154714,-0.09172 -0.08562,-0.06556 -0.07947,-0.06821 0.216035,-0.09319 0.41639,-0.0352 1.203954,-0.03244 1.222649,0.0043 0.0084,0.0165 0.005,0.273 -0.0076,0.57 -0.0126,0.297 -0.03191,0.519557 -0.04291,0.494571 z m -2.747293,-1.924376 -0.407293,-0.01293 -0.02581,-0.208631 c -0.03268,-0.264207 -0.0089,-2.012822 0.02784,-2.049487 0.05663,-0.05647 1.188366,0.360355 1.896598,0.698536 0.266224,0.127122 0.666724,0.333662 0.89,0.458978 0.403205,0.226302 0.405957,0.228875 0.405957,0.37956 0,0.08344 0.01164,0.289429 0.02587,0.457748 l 0.02587,0.306035 -1.215869,-0.0084 c -0.668729,-0.0046 -1.399152,-0.01426 -1.623163,-0.02137 z m 3.627268,-0.162873 2.5e-5,-0.172678 0.19,0.151284 c 0.1045,0.08321 0.195683,0.154594 0.202629,0.15864 0.0069,0.004 -0.07856,0.01367 -0.190025,0.02139 L 18.51995,12.42 Z"
       id="path818"
       inkscape:connector-curvature="0" />
    <path
       style="fill:#626263;stroke-width:1"
       d="M 10.12,23.056036 C 9.2942868,22.983699 8.321336,22.783716 7.7955644,22.578267 7.6009512,22.50222 7.4296868,22.44 7.4149764,22.44 7.35045,22.44 6.343626,21.9875 6.1709124,21.880877 6.0659108,21.816054 5.899,21.71435 5.8,21.654868 5.5204484,21.486904 4.9976988,21.108968 5.0175164,21.08915 c 0.00979,-0.0098 0.122348,0.04438 0.250138,0.120361 1.1549252,0.686719 2.4004948,1.128259 3.7723456,1.337253 0.6444596,0.09818 2.045675,0.09852 2.68,6.52e-4 3.167398,-0.488694 5.72574,-2.279852 7.284556,-5.100094 L 19.1,17.274643 20.76,17.267322 22.42,17.26 22.44,9.2 c 0.01417,-5.7100205 0.03271,-8.0814473 0.06358,-8.1335603 0.04085,-0.0689548 0.0478,-0.0693437 0.110933,-0.00621 0.03704,0.037042 0.09843,0.1241446 0.136417,0.1935603 0.06477,0.11835 0.06907,0.6195523 0.06907,8.0475044 0,7.7439096 -0.0017,7.9251326 -0.07732,8.0927566 -0.133318,0.29565 -0.149586,0.298931 -1.605964,0.323926 l -1.28328,0.02202 -0.196718,0.120999 c -0.113898,0.07006 -0.244254,0.19636 -0.309628,0.3 -0.688507,1.091525 -0.877482,1.329559 -1.70709,2.150263 -0.570775,0.564649 -1.072747,0.972291 -1.58,1.28309 -0.612841,0.375492 -0.762255,0.454973 -1.205812,0.641429 C 14.586991,22.348102 14.350753,22.44 14.329215,22.44 c -0.02154,0 -0.189923,0.06056 -0.374188,0.13457 -0.409117,0.164329 -1.060581,0.321938 -1.675027,0.405241 -0.446424,0.06052 -1.795713,0.108139 -2.16,0.07622 z M 4.8176452,20.981272 c -0.042705,-0.0323 -0.057349,-0.0593 -0.032543,-0.06 0.024806,-7e-4 0.06751,0.02573 0.094898,0.05873 0.063232,0.07619 0.037392,0.07672 -0.062355,0.0013 z m 0.778646,-3.514343 C 5.4993312,17.41574 5.366,17.29719 5.3,17.203484 5.1930848,17.051686 5.18,17.001148 5.18,16.74 c 0,-0.26186 0.012968,-0.3116 0.1216352,-0.466554 0.097062,-0.138407 0.1657488,-0.187938 0.34,-0.245182 0.2167588,-0.07121 0.6628216,-0.08 0.7985496,-0.01573 0.041527,0.01966 0.1756952,-0.0731 0.4327792,-0.29923 0.3052316,-0.268475 0.3679396,-0.342693 0.3468504,-0.410513 -0.188078,-0.604822 0.1155328,-1.081103 0.758572,-1.189988 0.061261,-0.01037 0.1061368,-0.102332 0.2054064,-0.420918 0.069861,-0.224204 0.1655364,-0.487209 0.212612,-0.584454 0.047076,-0.09724 0.1051604,-0.282699 0.1290776,-0.412119 C 8.5493992,12.565889 8.7651908,11.803 9.0050192,11 9.2448472,10.197 9.4408296,9.5227588 9.4405352,9.5016864 9.4402552,9.480614 9.3794688,9.399614 9.305486,9.3216864 9.1468448,9.1545868 9.0738784,8.8526444 9.116586,8.54 9.1713644,8.1389892 9.3911404,7.96 9.8287524,7.96 c 0.3159056,0 0.5082146,0.052334 0.6450476,0.1755408 0.16813,0.1513864 0.197784,0.2587888 0.185381,0.6714264 l -0.01163,0.3869672 0.466225,0.4355272 c 0.256424,0.2395396 0.485415,0.4469214 0.50887,0.4608474 0.02346,0.01393 0.113455,8e-5 0.2,-0.03074 0.08655,-0.03083 0.226107,-0.05685 0.310138,-0.05781 l 0.152783,-0.00176 0.200447,-0.41 c 0.110246,-0.2255 0.261801,-0.518 0.336789,-0.65 0.07499,-0.132 0.156484,-0.312 0.181103,-0.4 0.02462,-0.088 0.143476,-0.377612 0.264128,-0.643582 L 13.487399,7.412836 13.356281,7.2268168 c -0.102804,-0.1458492 -0.134785,-0.2367 -0.148095,-0.420714 -0.03119,-0.4311756 0.198516,-0.7534812 0.601336,-0.8437552 0.756195,-0.1694668 1.306825,0.6568756 0.844723,1.267694 -0.134033,0.1771688 -0.296549,0.2528168 -0.609665,0.2837876 L 13.78,7.54 13.675732,7.84649 c -0.05735,0.1685696 -0.142811,0.3665696 -0.189919,0.44 C 13.365636,8.4738168 13.12,8.993242 13.12,9.0600428 c 0,0.030586 -0.101702,0.2770884 -0.226003,0.547784 C 12.769695,9.878522 12.667775,10.118 12.667507,10.14 c -2.8e-4,0.022 0.05675,0.121038 0.126714,0.220083 0.305872,0.43304 0.157235,0.999398 -0.327137,1.246507 -0.229768,0.117218 -0.600161,0.09099 -0.81285,-0.05757 -0.258679,-0.180675 -0.35425,-0.360408 -0.354135,-0.665993 4e-5,-0.144667 0.01507,-0.310797 0.03337,-0.36918 0.03069,-0.0979 -0.0014,-0.139846 -0.413645,-0.5399996 C 10.371628,9.4416796 10.343779,9.4252168 10.091808,9.4843668 9.9863136,9.509132 9.8744484,9.5418284 9.8432188,9.557026 c -0.071199,0.034648 -0.1512276,0.2602828 -0.221872,0.62555 -0.064014,0.330988 -0.643568,2.247805 -0.7002948,2.316156 -0.053849,0.06488 -0.1999088,0.541308 -0.200536,0.654115 -2.8e-4,0.05107 -0.066386,0.306043 -0.1468948,0.566615 l -0.1463788,0.473769 0.1659052,0.188478 c 0.3133124,0.355941 0.3269136,0.793208 0.035014,1.125663 -0.2427544,0.276482 -0.5874848,0.35778 -0.9564168,0.225551 l -0.1882556,-0.06747 -0.3317444,0.296723 c -0.1824596,0.163198 -0.343638,0.313435 -0.3581748,0.33386 -0.014536,0.02042 -0.016844,0.130022 -0.00513,0.24355 0.024907,0.241325 -0.064446,0.593694 -0.1915092,0.755229 -0.2109716,0.268207 -0.669304,0.347042 -1.0006428,0.172116 z"
       id="path816"
       inkscape:connector-curvature="0" />
    <path
       style="fill:#0e4f9c;stroke-width:1"
       d="M 5.634842,17.43976 C 5.1099244,17.162386 5.0649144,16.447642 5.5507496,16.104398 5.764718,15.95323 6.0408948,15.92352 6.3152096,16.022162 l 0.1999148,0.07189 0.26801,-0.237025 C 6.93054,15.726661 7.1057592,15.573623 7.1725108,15.51694 L 7.2938772,15.41388 7.2432024,15.17509 C 7.2043944,14.992218 7.2031636,14.8968 7.2379468,14.767624 7.3183232,14.46913 7.6279904,14.2 7.89107,14.2 8.0731896,14.2 8.1188972,14.11353 8.3566092,13.319308 8.4848948,12.890688 8.8008152,11.84939 9.058654,11.00531 L 9.5274516,9.4706208 9.3683976,9.3053104 C 9.1557916,9.084342 9.1085716,8.9817884 9.1085716,8.7410164 9.1085716,8.2786612 9.4316412,7.96 9.9003928,7.96 c 0.2607512,0 0.4009992,0.062688 0.5694352,0.254526 0.209812,0.2389628 0.239114,0.4149704 0.147414,0.885478 -0.02182,0.1119824 0.01052,0.1518976 0.483949,0.5971556 l 0.507336,0.4771524 0.176311,-0.04716 c 0.09697,-0.02594 0.243552,-0.04743 0.325736,-0.04777 0.08218,-3.2e-4 0.169784,-0.01384 0.194666,-0.03 C 12.34272,10.02504 12.76,9.1589084 12.76,9.1054584 c 0,-0.00922 0.113882,-0.2572136 0.253072,-0.5511068 0.51891,-1.09566 0.523458,-1.1072304 0.473668,-1.204896 -0.02508,-0.049201 -0.08437,-0.1376148 -0.131758,-0.196476 -0.09602,-0.1192836 -0.141025,-0.4216176 -0.09738,-0.6542592 0.03913,-0.208598 0.312853,-0.4717112 0.55386,-0.5323976 0.371508,-0.093547 0.721023,0.072468 0.895017,0.4251212 0.08754,0.1774288 0.100354,0.244954 0.07965,0.4197432 C 14.738456,7.2137324 14.395884,7.52 13.993298,7.52 h -0.19412 l -0.140537,0.3001752 c -0.07729,0.1650964 -0.245801,0.5295964 -0.374457,0.81 -0.128656,0.2804036 -0.335229,0.7297512 -0.459052,0.99855 C 12.70131,9.897524 12.6,10.14282 12.6,10.173827 c 0,0.03101 0.02832,0.07988 0.06292,0.108599 0.195319,0.162101 0.278146,0.613984 0.163034,0.889484 -0.120447,0.28827 -0.517476,0.504538 -0.822327,0.447934 -0.538423,-0.09997 -0.804143,-0.622379 -0.584506,-1.149139 0.02229,-0.05347 -0.08269,-0.17683 -0.459515,-0.5400002 -0.268625,-0.2588876 -0.514534,-0.4857172 -0.546464,-0.504066 -0.03484,-0.020019 -0.121384,-0.00802 -0.21641,0.03 C 10.109641,9.4914876 9.9959492,9.52 9.9440884,9.52 c -0.051861,0 -0.11209,0.0225 -0.1338416,0.05 -0.051451,0.065047 -0.2116304,0.561831 -0.6093976,1.89 -0.3546232,1.184108 -0.694794,2.303304 -0.7819136,2.572576 l -0.055835,0.172575 0.1646088,0.17858 C 8.7799244,14.657352 8.84597,15.051919 8.688532,15.344514 8.5357928,15.628378 8.14608,15.801606 7.84,15.72169 7.439376,15.617088 7.4785672,15.604809 7.0840584,15.958529 c -0.200232,0.179529 -0.363958,0.356804 -0.3638352,0.393944 1.2e-4,0.03714 0.019644,0.137472 0.04338,0.222961 0.054719,0.197074 -0.0083,0.470328 -0.151968,0.65892 C 6.40756,17.502246 5.9393996,17.600693 5.634842,17.43976 Z"
       id="path814"
       inkscape:connector-curvature="0" />
  </g>
</svg>
