<?xml version="1.0" encoding="UTF-8" standalone="no"?>
<svg
   xmlns:dc="http://purl.org/dc/elements/1.1/"
   xmlns:cc="http://creativecommons.org/ns#"
   xmlns:rdf="http://www.w3.org/1999/02/22-rdf-syntax-ns#"
   xmlns:svg="http://www.w3.org/2000/svg"
   xmlns="http://www.w3.org/2000/svg"
   xmlns:sodipodi="http://sodipodi.sourceforge.net/DTD/sodipodi-0.dtd"
   xmlns:inkscape="http://www.inkscape.org/namespaces/inkscape"
   viewBox="0 0 24 24"
   width="24"
   height="24"
   version="1.1"
   id="svg12"
   sodipodi:docname="powerpoint_icon.svg"
   inkscape:version="0.92.3 (2405546, 2018-03-11)">
  <metadata
     id="metadata18">
    <rdf:RDF>
      <cc:Work
         rdf:about="">
        <dc:format>image/svg+xml</dc:format>
        <dc:type
           rdf:resource="http://purl.org/dc/dcmitype/StillImage" />
        <dc:title></dc:title>
      </cc:Work>
    </rdf:RDF>
  </metadata>
  <defs
     id="defs16" />
  <sodipodi:namedview
     pagecolor="#ffffff"
     bordercolor="#666666"
     borderopacity="1"
     objecttolerance="10"
     gridtolerance="10"
     guidetolerance="10"
     inkscape:pageopacity="0"
     inkscape:pageshadow="2"
     inkscape:window-width="1366"
     inkscape:window-height="705"
     id="namedview14"
     showgrid="false"
     fit-margin-top="0"
     fit-margin-left="0"
     fit-margin-right="0"
     fit-margin-bottom="0"
     inkscape:zoom="4.9166667"
     inkscape:cx="18"
     inkscape:cy="18"
     inkscape:window-x="-8"
     inkscape:window-y="-8"
     inkscape:window-maximized="1"
     inkscape:current-layer="svg12" />
  <path
     d="M 23.333333,2.666667 H 12.666667 V 21.333333 H 23.333333 C 23.702,21.333333 24,21.035333 24,20.666667 V 3.333333 C 24,2.964667 23.702,2.666667 23.333333,2.666667 Z"
     id="path2"
     inkscape:connector-curvature="0"
     style="fill:#ff8a65;stroke-width:1" />
  <path
     d="m 12,15.333333 h 9.333333 v 1.333334 H 12 Z M 12,18 h 9.333333 v 1.333333 H 12 Z M 16,6 c -2.208667,0 -4,1.791333 -4,4 0,2.208667 1.791333,4 4,4 2.208667,0 4,-1.791333 4,-4 h -4 z"
     id="path4"
     inkscape:connector-curvature="0"
     style="fill:#fbe9e7;stroke-width:1" />
  <path
     d="m 17.333333,4.666667 v 4 h 4 c 0,-2.208667 -1.791333,-4 -4,-4 z"
     id="path6"
     inkscape:connector-curvature="0"
     style="fill:#fbe9e7;stroke-width:1" />
  <path
     d="M 14,24 0,21.333333 V 2.666667 L 14,0 Z"
     id="path8"
     inkscape:connector-curvature="0"
     style="fill:#e64a19;stroke-width:1" />
  <path
     d="M 7.218667,7.333333 H 4 v 9.333334 h 2 v -3.215334 h 1.034667 c 1.103333,0 1.984,-0.290666 2.643333,-0.869333 0.658667,-0.579333 0.989333,-1.338 0.988,-2.274667 6.67e-4,-1.982666 -1.149333,-2.974 -3.447333,-2.974 z m -0.356,4.523334 H 6 V 8.947333 h 0.862667 c 1.094,0 1.640666,0.48 1.640666,1.438667 0,0.981333 -0.546666,1.470667 -1.640666,1.470667 z"
     id="path10"
     inkscape:connector-curvature="0"
     style="fill:#ffffff;stroke-width:1" />
</svg>
