<?xml version="1.0" encoding="UTF-8" standalone="no"?>
<svg
   xmlns:dc="http://purl.org/dc/elements/1.1/"
   xmlns:cc="http://creativecommons.org/ns#"
   xmlns:rdf="http://www.w3.org/1999/02/22-rdf-syntax-ns#"
   xmlns:svg="http://www.w3.org/2000/svg"
   xmlns="http://www.w3.org/2000/svg"
   xmlns:sodipodi="http://sodipodi.sourceforge.net/DTD/sodipodi-0.dtd"
   xmlns:inkscape="http://www.inkscape.org/namespaces/inkscape"
   viewBox="0 0 24 24"
   width="24"
   height="24"
   version="1.1"
   id="svg10"
   sodipodi:docname="word_icon.svg"
   inkscape:version="0.92.3 (2405546, 2018-03-11)">
  <metadata
     id="metadata16">
    <rdf:RDF>
      <cc:Work
         rdf:about="">
        <dc:format>image/svg+xml</dc:format>
        <dc:type
           rdf:resource="http://purl.org/dc/dcmitype/StillImage" />
        <dc:title></dc:title>
      </cc:Work>
    </rdf:RDF>
  </metadata>
  <defs
     id="defs14" />
  <sodipodi:namedview
     pagecolor="#ffffff"
     bordercolor="#666666"
     borderopacity="1"
     objecttolerance="10"
     gridtolerance="10"
     guidetolerance="10"
     inkscape:pageopacity="0"
     inkscape:pageshadow="2"
     inkscape:window-width="1366"
     inkscape:window-height="705"
     id="namedview12"
     showgrid="false"
     inkscape:zoom="4.9166667"
     inkscape:cx="12"
     inkscape:cy="11.999999"
     inkscape:window-x="-8"
     inkscape:window-y="-8"
     inkscape:window-maximized="1"
     inkscape:current-layer="svg10"
     fit-margin-top="0"
     fit-margin-left="0"
     fit-margin-right="0"
     fit-margin-bottom="0" />
  <path
     d="M 23.333333,2.666666 H 12.666667 V 21.333333 H 23.333333 C 23.702,21.333333 24,21.035333 24,20.666666 V 3.333333 C 24,2.964666 23.702,2.666666 23.333333,2.666666 Z"
     id="path2"
     inkscape:connector-curvature="0"
     style="fill:#2196f3;stroke-width:1" />
  <path
     d="M 12.666667,6.000666 H 22 v 1.332666 h -9.333333 z m 0,2.666001 H 22 V 10 h -9.333333 z m 0,2.667334 H 22 v 1.333332 h -9.333333 z m 0,2.666665 H 22 v 1.332668 h -9.333333 z m 0,2.666001 H 22 v 1.334 h -9.333333 z"
     id="path4"
     inkscape:connector-curvature="0"
     style="fill:#ffffff;stroke-width:1" />
  <path
     d="M 14,24 0,21.333333 V 2.666666 L 14,0 Z"
     id="path6"
     inkscape:connector-curvature="0"
     style="fill:#0d47a1;stroke-width:1" />
  <path
     d="M 10.111333,16.674667 H 8.3 l -1.201333,-5.992 c -0.06532,-0.318 -0.103331,-0.663999 -0.115996,-1.050666 h -0.02133 c -0.02867,0.424666 -0.07333,0.774666 -0.13134,1.050666 l -1.233331,5.992 H 3.7120001 L 1.8053334,7.332 h 1.7833334 l 1.0240002,6.218666 c 0.04134,0.269334 0.074,0.625334 0.09534,1.071335 h 0.028 C 4.748657,14.29 4.801337,13.921333 4.884674,13.525333 L 6.198,7.331332 h 1.748 l 1.19,6.269335 c 0.04132,0.231999 0.07933,0.564 0.113325,1.007333 h 0.02067 c 0.01335,-0.343334 0.04865,-0.69 0.106669,-1.041999 l 1.002,-6.234669 H 12.024 Z"
     id="path8"
     inkscape:connector-curvature="0"
     style="fill:#ffffff;stroke-width:1" />
</svg>
